<svg width="21640" height="8241" viewBox="0 0 21640 8241" fill="none" xmlns="http://www.w3.org/2000/svg">
<path fill-rule="evenodd" clip-rule="evenodd" d="M7074.2 1967.46L3714.76 29.8076C3679.5 9.56934 3640.98 -0.105469 3603.01 -0.00195312C3565.02 -0.105469 3526.5 9.56934 3491.24 29.8076L131.697 1967.46C53.9604 2003.02 -0.000488281 2081.29 -0.000488281 2172.44L-0.000488281 6068.69H0.833496C0.963867 6146.25 41.4336 6221.62 113.545 6263.11L3488.19 8209.53C3522.88 8230.08 3562.62 8241 3603.01 8241C3643.38 8241 3683.07 8230.06 3717.81 8209.53L7092.46 6263.11C7164.58 6221.62 7205.05 6146.27 7205.17 6068.69H7206L7206 2172.44C7206 2081.29 7152.05 2003.02 7074.2 1967.46ZM6631.33 2229.78L3778.38 584.255V1356.22L4088 1534.83C4131.18 1554.63 4161.24 1598.2 4161.24 1648.67V2076.19L5240.8 2698.9L5465.47 2569.33C5502.94 2547.01 5551.05 2545.03 5591.54 2568.26L5817.98 2698.9L6631.33 2229.78ZM4035.68 2292.03L5115.24 2914.71V3176.09C5115.24 3225.51 5144.05 3268.25 5185.68 3288.57L5404.64 3414.84L5404.64 4660.04L5033.75 4873.97C4993.88 4896.97 4971.54 4938.9 4971.14 4981.98V5481.33C4971.14 5530.76 4999.94 5573.5 5041.69 5593.81L5466.74 5839.02C5507.33 5862.6 5555.75 5860.62 5593.41 5838.19L5912.65 5654.08L6581.65 6039.91C6239.49 6237.26 5273 6796.14 4522.38 7230.2L4497.68 7244.48C4173.37 7432.02 3891.62 7594.94 3721.56 7693.25L3461.13 7694.98L624.292 6039.91L1293.4 5654.08L1612.66 5838.19C1650.32 5860.62 1698.73 5862.59 1739.33 5839.02L2164.37 5593.81C2206.09 5573.5 2234.92 5530.76 2234.92 5481.33L2234.61 4981.98C2234.61 4938.9 2212.18 4896.97 2172.21 4873.97L1801.42 4660.04L1801.42 3414.84L2020.35 3288.57C2061.97 3268.25 2090.8 3225.51 2090.8 3176.09V2914.71L3170.37 2292.03L3539.16 2504.79C3558.48 2516.26 3580.59 2522.32 3603.01 2522.32C3625.44 2522.32 3647.57 2516.26 3666.87 2504.79L4035.66 2292.03H4035.68ZM3603.01 1542.74L3910.76 1720.31V2076.53L3603.01 2253.97L3295.29 2076.53V1720.31L3603.01 1542.74ZM574.733 2229.8L3427.69 584.255V1356.25L3118.07 1534.83C3074.87 1554.63 3044.84 1598.23 3044.84 1648.67V2076.19L1965.38 2698.93L1740.48 2569.33C1703.1 2547.01 1655 2545.06 1614.53 2568.29L1388.09 2698.93L574.733 2229.8ZM1262.93 3176.06C1262.93 3219.11 1285.28 3260.94 1325.23 3284.07L1552.01 3414.79L1552.01 4659.99L1188.95 4869.45C1147.3 4889.69 1118.5 4932.43 1118.5 4981.95V5352.15L450.719 5737.36L450.719 2446.49L1262.62 2914.78L1262.91 3176.04L1262.93 3176.06ZM1368.98 5053.78L1676.72 4876.34L1984.39 5053.78V5409.38L1676.72 5586.84L1368.98 5409.38V5053.78ZM5943.41 3176.06V2914.81L6755.32 2446.49L6755.32 5737.37L6087.52 5352.18V4981.98C6087.52 4932.43 6058.74 4889.71 6017.09 4869.45L5654.04 4660.01L5654.04 3414.81L5880.81 3284.09C5920.78 3260.94 5943.1 3219.14 5943.39 3176.09L5943.41 3176.06ZM5529.33 4876.34L5837.09 5053.78V5409.38L5529.33 5586.84L5221.69 5409.38V5053.78L5529.33 4876.34Z" fill="white"/>
<path fill-rule="evenodd" clip-rule="evenodd" d="M7074.2 1967.46L3714.76 29.8076C3679.5 9.56934 3640.98 -0.105469 3603.01 -0.00195312C3565.02 -0.105469 3526.5 9.56934 3491.24 29.8076L131.697 1967.46C53.9604 2003.02 -0.000488281 2081.29 -0.000488281 2172.44L-0.000488281 6068.69H0.833496C0.963867 6146.25 41.4336 6221.62 113.545 6263.11L3488.19 8209.53C3522.88 8230.08 3562.62 8241 3603.01 8241C3643.38 8241 3683.07 8230.06 3717.81 8209.53L7092.46 6263.11C7164.58 6221.62 7205.05 6146.27 7205.17 6068.69H7206L7206 2172.44C7206 2081.29 7152.05 2003.02 7074.2 1967.46ZM6631.33 2229.78L3778.38 584.255V1356.22L4088 1534.83C4131.18 1554.63 4161.24 1598.2 4161.24 1648.67V2076.19L5240.8 2698.9L5465.47 2569.33C5502.94 2547.01 5551.05 2545.03 5591.54 2568.26L5817.98 2698.9L6631.33 2229.78ZM4035.68 2292.03L5115.24 2914.71V3176.09C5115.24 3225.51 5144.05 3268.25 5185.68 3288.57L5404.64 3414.84L5404.64 4660.04L5033.75 4873.97C4993.88 4896.97 4971.54 4938.9 4971.14 4981.98V5481.33C4971.14 5530.76 4999.94 5573.5 5041.69 5593.81L5466.74 5839.02C5507.33 5862.6 5555.75 5860.62 5593.41 5838.19L5912.65 5654.08L6581.65 6039.91C6239.49 6237.26 5273 6796.14 4522.38 7230.2L4497.68 7244.48C4173.37 7432.02 3891.62 7594.94 3721.56 7693.25L3461.13 7694.98L624.292 6039.91L1293.4 5654.08L1612.66 5838.19C1650.32 5860.62 1698.73 5862.59 1739.33 5839.02L2164.37 5593.81C2206.09 5573.5 2234.92 5530.76 2234.92 5481.33L2234.61 4981.98C2234.61 4938.9 2212.18 4896.97 2172.21 4873.97L1801.42 4660.04L1801.42 3414.84L2020.35 3288.57C2061.97 3268.25 2090.8 3225.51 2090.8 3176.09V2914.71L3170.37 2292.03L3539.16 2504.79C3558.48 2516.26 3580.59 2522.32 3603.01 2522.32C3625.44 2522.32 3647.57 2516.26 3666.87 2504.79L4035.66 2292.03H4035.68ZM3603.01 1542.74L3910.76 1720.31V2076.53L3603.01 2253.97L3295.29 2076.53V1720.31L3603.01 1542.74ZM574.733 2229.8L3427.69 584.255V1356.25L3118.07 1534.83C3074.87 1554.63 3044.84 1598.23 3044.84 1648.67V2076.19L1965.38 2698.93L1740.48 2569.33C1703.1 2547.01 1655 2545.06 1614.53 2568.29L1388.09 2698.93L574.733 2229.8ZM1262.93 3176.06C1262.93 3219.11 1285.28 3260.94 1325.23 3284.07L1552.01 3414.79L1552.01 4659.99L1188.95 4869.45C1147.3 4889.69 1118.5 4932.43 1118.5 4981.95V5352.15L450.719 5737.36L450.719 2446.49L1262.62 2914.78L1262.91 3176.04L1262.93 3176.06ZM1368.98 5053.78L1676.72 4876.34L1984.39 5053.78V5409.38L1676.72 5586.84L1368.98 5409.38V5053.78ZM5943.41 3176.06V2914.81L6755.32 2446.49L6755.32 5737.37L6087.52 5352.18V4981.98C6087.52 4932.43 6058.74 4889.71 6017.09 4869.45L5654.04 4660.01L5654.04 3414.81L5880.81 3284.09C5920.78 3260.94 5943.1 3219.14 5943.39 3176.09L5943.41 3176.06ZM5529.33 4876.34L5837.09 5053.78V5409.38L5529.33 5586.84L5221.69 5409.38V5053.78L5529.33 4876.34Z" fill="white"/>
<path fill-rule="evenodd" clip-rule="evenodd" d="M131.804 6273.54L3491.24 8211.19C3526.5 8231.43 3565.02 8241.1 3602.99 8241C3640.98 8241.1 3679.5 8231.43 3714.76 8211.19L7074.3 6273.54C7152.04 6237.98 7206 6159.7 7206 6068.55V2172.31H7205.17C7205.04 2094.74 7164.57 2019.38 7092.45 1977.88L3717.81 31.463C3683.12 10.9197 3643.38 -0.00292969 3602.99 -0.00292969C3562.62 -0.00292969 3522.93 10.936 3488.19 31.463L113.538 1977.88C41.4199 2019.38 0.945063 2094.73 0.831005 2172.31H0V6068.55C0 6159.7 53.9503 6237.98 131.804 6273.54ZM574.665 6011.22L3427.62 7656.74V6884.77L3118 6706.17C3074.82 6686.37 3044.76 6642.8 3044.76 6592.33V6164.8L1965.2 5542.1L1740.53 5671.67C1703.06 5693.99 1654.95 5695.97 1614.46 5672.74L1388.02 5542.1L574.665 6011.22ZM3170.32 5948.97L2090.76 5326.29V5064.91C2090.76 5015.49 2061.95 4972.75 2020.32 4952.43L1801.36 4826.16V3580.96L2172.25 3367.02C2212.12 3344.03 2234.46 3302.09 2234.86 3259.02V2759.67C2234.86 2710.24 2206.06 2667.5 2164.31 2647.19L1739.26 2401.98C1698.67 2378.39 1650.25 2380.38 1612.59 2402.81L1293.35 2586.92L624.347 2201.09C966.507 2003.73 1933 1444.85 2683.62 1010.8L2708.32 996.516C3032.63 808.976 3314.38 646.055 3484.44 547.75L3744.87 546.02L6581.71 2201.09L5912.6 2586.92L5593.34 2402.81C5555.68 2380.38 5507.27 2378.41 5466.67 2401.98L5041.63 2647.19C4999.91 2667.5 4971.08 2710.24 4971.08 2759.67L4971.39 3259.02C4971.39 3302.09 4993.82 3344.03 5033.79 3367.02L5404.58 3580.96V4826.16L5185.65 4952.43C5144.03 4972.75 5115.2 5015.49 5115.2 5064.91V5326.29L4035.63 5948.97L3666.84 5736.21C3647.52 5724.74 3625.41 5718.68 3602.99 5718.68C3580.56 5718.68 3558.43 5724.74 3539.13 5736.21L3170.34 5948.97H3170.32ZM3602.99 6698.26L3295.24 6520.69V6164.47L3602.99 5987.03L3910.71 6164.47V6520.69L3602.99 6698.26ZM6631.27 6011.2L3778.31 7656.74V6884.75L4087.93 6706.17C4131.13 6686.37 4161.16 6642.77 4161.16 6592.33V6164.8L5240.62 5542.07L5465.52 5671.67C5502.9 5693.99 5551 5695.94 5591.47 5672.71L5817.91 5542.07L6631.27 6011.2ZM5943.07 5064.94C5943.07 5021.88 5920.72 4980.06 5880.77 4956.93L5653.99 4826.21V3581.01L6017.05 3371.55C6058.7 3351.31 6087.5 3308.57 6087.5 3259.04V2888.85L6755.28 2503.64V5794.5L5943.38 5326.21L5943.09 5064.96L5943.07 5064.94ZM5837.02 3187.22L5529.28 3364.66L5221.61 3187.22V2831.62L5529.28 2654.16L5837.02 2831.62V3187.22ZM1262.59 5064.94V5326.19L450.682 5794.5V2503.62L1118.48 2888.82V3259.02C1118.48 3308.57 1147.26 3351.29 1188.91 3371.55L1551.96 3580.98V4826.19L1325.19 4956.9C1285.22 4980.06 1262.9 5021.86 1262.61 5064.91L1262.59 5064.94ZM1676.67 3364.66L1368.91 3187.22V2831.62L1676.67 2654.16L1984.31 2831.62V3187.22L1676.67 3364.66Z" fill="white"/>
<path fill-rule="evenodd" clip-rule="evenodd" d="M131.804 6273.54L3491.24 8211.19C3526.5 8231.43 3565.02 8241.1 3602.99 8241C3640.98 8241.1 3679.5 8231.43 3714.76 8211.19L7074.3 6273.54C7152.04 6237.98 7206 6159.7 7206 6068.55V2172.31H7205.17C7205.04 2094.74 7164.57 2019.38 7092.45 1977.88L3717.81 31.463C3683.12 10.9197 3643.38 -0.00292969 3602.99 -0.00292969C3562.62 -0.00292969 3522.93 10.936 3488.19 31.463L113.538 1977.88C41.4199 2019.38 0.945063 2094.73 0.831005 2172.31H0V6068.55C0 6159.7 53.9503 6237.98 131.804 6273.54ZM574.665 6011.22L3427.62 7656.74V6884.77L3118 6706.17C3074.82 6686.37 3044.76 6642.8 3044.76 6592.33V6164.8L1965.2 5542.1L1740.53 5671.67C1703.06 5693.99 1654.95 5695.97 1614.46 5672.74L1388.02 5542.1L574.665 6011.22ZM3170.32 5948.97L2090.76 5326.29V5064.91C2090.76 5015.49 2061.95 4972.75 2020.32 4952.43L1801.36 4826.16V3580.96L2172.25 3367.02C2212.12 3344.03 2234.46 3302.09 2234.86 3259.02V2759.67C2234.86 2710.24 2206.06 2667.5 2164.31 2647.19L1739.26 2401.98C1698.67 2378.39 1650.25 2380.38 1612.59 2402.81L1293.35 2586.92L624.347 2201.09C966.507 2003.73 1933 1444.85 2683.62 1010.8L2708.32 996.516C3032.63 808.976 3314.38 646.055 3484.44 547.75L3744.87 546.02L6581.71 2201.09L5912.6 2586.92L5593.34 2402.81C5555.68 2380.38 5507.27 2378.41 5466.67 2401.98L5041.63 2647.19C4999.91 2667.5 4971.08 2710.24 4971.08 2759.67L4971.39 3259.02C4971.39 3302.09 4993.82 3344.03 5033.79 3367.02L5404.58 3580.96V4826.16L5185.65 4952.43C5144.03 4972.75 5115.2 5015.49 5115.2 5064.91V5326.29L4035.63 5948.97L3666.84 5736.21C3647.52 5724.74 3625.41 5718.68 3602.99 5718.68C3580.56 5718.68 3558.43 5724.74 3539.13 5736.21L3170.34 5948.97H3170.32ZM3602.99 6698.26L3295.24 6520.69V6164.47L3602.99 5987.03L3910.71 6164.47V6520.69L3602.99 6698.26ZM6631.27 6011.2L3778.31 7656.74V6884.75L4087.93 6706.17C4131.13 6686.37 4161.16 6642.77 4161.16 6592.33V6164.8L5240.62 5542.07L5465.52 5671.67C5502.9 5693.99 5551 5695.94 5591.47 5672.71L5817.91 5542.07L6631.27 6011.2ZM5943.07 5064.94C5943.07 5021.88 5920.72 4980.06 5880.77 4956.93L5653.99 4826.21V3581.01L6017.05 3371.55C6058.7 3351.31 6087.5 3308.57 6087.5 3259.04V2888.85L6755.28 2503.64V5794.5L5943.38 5326.21L5943.09 5064.96L5943.07 5064.94ZM5837.02 3187.22L5529.28 3364.66L5221.61 3187.22V2831.62L5529.28 2654.16L5837.02 2831.62V3187.22ZM1262.59 5064.94V5326.19L450.682 5794.5V2503.62L1118.48 2888.82V3259.02C1118.48 3308.57 1147.26 3351.29 1188.91 3371.55L1551.96 3580.98V4826.19L1325.19 4956.9C1285.22 4980.06 1262.9 5021.86 1262.61 5064.91L1262.59 5064.94ZM1676.67 3364.66L1368.91 3187.22V2831.62L1676.67 2654.16L1984.31 2831.62V3187.22L1676.67 3364.66Z" fill="white"/>
<rect x="-70.7116" width="681.485" height="681.485" rx="75" transform="matrix(0.707116 -0.707097 0.707116 0.707097 3170.53 3069.3)" stroke="white" stroke-width="100"/>
<rect x="-70.7116" width="681.485" height="681.485" rx="75" transform="matrix(0.707116 -0.707097 0.707116 0.707097 3170.53 5054.46)" stroke="white" stroke-width="100"/>
<path d="M3388.97 4064.66L3224.52 3900.21L3388.97 3735.76L3553.42 3900.21L3388.97 4064.66ZM3817.5 4064.66L3653.05 3900.21L3817.5 3735.76L3981.95 3900.21L3817.5 4064.66ZM3389.02 4497.81L3224.56 4333.36L3389.02 4168.92L3553.47 4333.36L3389.02 4497.81ZM3817.5 4487.89L3653.05 4323.44L3817.5 4159L3981.95 4323.44L3817.5 4487.89Z" stroke="white" stroke-width="50"/>
<rect y="70.7097" width="681.485" height="681.485" rx="75" transform="matrix(-0.707116 -0.707097 0.707116 -0.707097 2560.39 4643.17)" stroke="white" stroke-width="100"/>
<rect y="70.7097" width="681.485" height="681.485" rx="75" transform="matrix(-0.707116 -0.707097 0.707116 -0.707097 4545.61 4643.17)" stroke="white" stroke-width="100"/>
<path d="M3619.82 3304.49C3594.82 3304.49 3571.32 3299.99 3549.32 3290.99C3527.32 3281.99 3508.15 3269.49 3491.82 3253.49C3475.82 3237.15 3462.99 3217.99 3453.32 3195.99C3443.99 3173.65 3439.32 3149.49 3439.32 3123.49V3122.49C3439.32 3097.15 3443.99 3073.49 3453.32 3051.49C3462.65 3029.15 3475.49 3009.82 3491.82 2993.49C3508.15 2976.82 3527.49 2963.82 3549.82 2954.49C3572.49 2945.15 3597.15 2940.49 3623.82 2940.49C3641.82 2940.49 3658.15 2942.32 3672.82 2945.99C3687.49 2949.32 3700.82 2954.32 3712.82 2960.99C3725.15 2967.32 3736.15 2974.99 3745.82 2983.99C3755.82 2992.99 3764.65 3002.82 3772.32 3013.49L3699.32 3069.99C3689.32 3057.32 3678.32 3047.32 3666.32 3039.99C3654.32 3032.65 3639.82 3028.99 3622.82 3028.99C3610.49 3028.99 3599.15 3031.49 3588.82 3036.49C3578.82 3041.15 3570.15 3047.65 3562.82 3055.99C3555.49 3064.32 3549.65 3074.15 3545.32 3085.49C3541.32 3096.82 3539.32 3108.82 3539.32 3121.49V3122.49C3539.32 3135.49 3541.32 3147.82 3545.32 3159.49C3549.65 3170.82 3555.49 3180.65 3562.82 3188.99C3570.15 3197.32 3578.82 3203.99 3588.82 3208.99C3599.15 3213.65 3610.49 3215.99 3622.82 3215.99C3631.82 3215.99 3639.99 3214.99 3647.32 3212.99C3654.99 3210.99 3661.82 3208.15 3667.82 3204.49C3674.15 3200.49 3679.99 3195.99 3685.32 3190.99C3690.99 3185.65 3696.49 3179.82 3701.82 3173.49L3774.82 3225.49C3766.49 3236.82 3757.32 3247.32 3747.32 3256.99C3737.65 3266.65 3726.49 3274.99 3713.82 3281.99C3701.49 3288.99 3687.49 3294.49 3671.82 3298.49C3656.49 3302.49 3639.15 3304.49 3619.82 3304.49Z" fill="white"/>
<path d="M3619.82 5281.51C3594.82 5281.51 3571.32 5277.01 3549.32 5268.01C3527.32 5259.01 3508.15 5246.51 3491.82 5230.51C3475.82 5214.18 3462.99 5195.01 3453.32 5173.01C3443.99 5150.68 3439.32 5126.51 3439.32 5100.51V5099.51C3439.32 5074.18 3443.99 5050.51 3453.32 5028.51C3462.65 5006.18 3475.49 4986.84 3491.82 4970.51C3508.15 4953.84 3527.49 4940.84 3549.82 4931.51C3572.49 4922.18 3597.15 4917.51 3623.82 4917.51C3641.82 4917.51 3658.15 4919.34 3672.82 4923.01C3687.49 4926.34 3700.82 4931.34 3712.82 4938.01C3725.15 4944.34 3736.15 4952.01 3745.82 4961.01C3755.82 4970.01 3764.65 4979.84 3772.32 4990.51L3699.32 5047.01C3689.32 5034.34 3678.32 5024.34 3666.32 5017.01C3654.32 5009.68 3639.82 5006.01 3622.82 5006.01C3610.49 5006.01 3599.15 5008.51 3588.82 5013.51C3578.82 5018.18 3570.15 5024.68 3562.82 5033.01C3555.49 5041.34 3549.65 5051.18 3545.32 5062.51C3541.32 5073.84 3539.32 5085.84 3539.32 5098.51V5099.51C3539.32 5112.51 3541.32 5124.84 3545.32 5136.51C3549.65 5147.84 3555.49 5157.68 3562.82 5166.01C3570.15 5174.34 3578.82 5181.01 3588.82 5186.01C3599.15 5190.68 3610.49 5193.01 3622.82 5193.01C3631.82 5193.01 3639.99 5192.01 3647.32 5190.01C3654.99 5188.01 3661.82 5185.18 3667.82 5181.51C3674.15 5177.51 3679.99 5173.01 3685.32 5168.01C3690.99 5162.68 3696.49 5156.84 3701.82 5150.51L3774.82 5202.51C3766.49 5213.84 3757.32 5224.34 3747.32 5234.01C3737.65 5243.68 3726.49 5252.01 3713.82 5259.01C3701.49 5266.01 3687.49 5271.51 3671.82 5275.51C3656.49 5279.51 3639.15 5281.51 3619.82 5281.51Z" fill="white"/>
<path d="M2632.7 4210.33C2647.7 4210.33 2659.2 4207.66 2667.2 4202.33C2675.2 4196.66 2679.2 4188.66 2679.2 4178.33V4177.33C2679.2 4167.66 2675.37 4159.99 2667.7 4154.33C2660.03 4148.66 2648.03 4145.83 2631.7 4145.83H2557.7V4210.33H2632.7ZM2618.7 4077.83C2633.7 4077.83 2645.03 4075.33 2652.7 4070.33C2660.7 4065.33 2664.7 4057.66 2664.7 4047.33V4046.33C2664.7 4036.66 2661.03 4029.33 2653.7 4024.33C2646.37 4018.99 2635.37 4016.33 2620.7 4016.33H2557.7V4077.83H2618.7ZM2463.2 3938.33H2642.7C2664.7 3938.33 2683.53 3940.99 2699.2 3946.33C2714.87 3951.66 2727.87 3959.49 2738.2 3969.83C2745.2 3976.83 2750.7 3984.99 2754.7 3994.33C2758.7 4003.66 2760.7 4014.33 2760.7 4026.33V4027.33C2760.7 4047.66 2755.53 4064.16 2745.2 4076.83C2735.2 4089.16 2722.37 4098.66 2706.7 4105.33C2728.03 4112.33 2744.87 4122.49 2757.2 4135.83C2769.87 4148.83 2776.2 4167.16 2776.2 4190.83V4191.83C2776.2 4222.16 2764.53 4245.83 2741.2 4262.83C2718.2 4279.83 2685.7 4288.33 2643.7 4288.33H2463.2V3938.33Z" fill="white"/>
<path d="M4617.92 4210.33C4632.92 4210.33 4644.42 4207.66 4652.42 4202.33C4660.42 4196.66 4664.42 4188.66 4664.42 4178.33V4177.33C4664.42 4167.66 4660.58 4159.99 4652.92 4154.33C4645.25 4148.66 4633.25 4145.83 4616.92 4145.83H4542.92V4210.33H4617.92ZM4603.92 4077.83C4618.92 4077.83 4630.25 4075.33 4637.92 4070.33C4645.92 4065.33 4649.92 4057.66 4649.92 4047.33V4046.33C4649.92 4036.66 4646.25 4029.33 4638.92 4024.33C4631.58 4018.99 4620.58 4016.33 4605.92 4016.33H4542.92V4077.83H4603.92ZM4448.42 3938.33H4627.92C4649.92 3938.33 4668.75 3940.99 4684.42 3946.33C4700.08 3951.66 4713.08 3959.49 4723.42 3969.83C4730.42 3976.83 4735.92 3984.99 4739.92 3994.33C4743.92 4003.66 4745.92 4014.33 4745.92 4026.33V4027.33C4745.92 4047.66 4740.75 4064.16 4730.42 4076.83C4720.42 4089.16 4707.58 4098.66 4691.92 4105.33C4713.25 4112.33 4730.08 4122.49 4742.42 4135.83C4755.08 4148.83 4761.42 4167.16 4761.42 4190.83V4191.83C4761.42 4222.16 4749.75 4245.83 4726.42 4262.83C4703.42 4279.83 4670.92 4288.33 4628.92 4288.33H4448.42V3938.33Z" fill="white"/>
<mask id="path-12-outside-1_112_8" maskUnits="userSpaceOnUse" x="8918" y="5095" width="12561" height="1730" fill="black">
<rect fill="white" x="8918" y="5095" width="12561" height="1730"/>
<path d="M8988 5788V5123H9315C9457 5123 9506 5196 9506 5288C9506 5384 9448 5432 9381 5444C9454 5453 9517 5504 9517 5609C9517 5718 9451 5788 9313 5788H8988ZM9071 5721H9305C9398 5721 9430 5671 9430 5600C9430 5521 9389 5475 9289 5475H9071V5721ZM9071 5412H9287C9381 5412 9419 5373 9419 5300C9419 5225 9391 5190 9298 5190H9071V5412ZM9802.65 5788V5721H9943.65V5190H9802.65V5123H10167.6V5190H10026.6V5721H10167.6V5788H9802.65ZM10962.4 5731V5123H11044.4V5788H10905.4L10603.4 5266C10586.4 5234 10571.4 5205 10561.4 5179V5788H10478.4V5123H10618.4L10920.4 5646C10933.4 5669 10948.4 5702 10962.4 5731ZM11358.5 5550V5123H11441.5V5540C11441.5 5692 11504.5 5735 11628.5 5735C11752.5 5735 11815.5 5692 11815.5 5540V5123H11898.5V5550C11898.5 5712 11813.5 5804 11628.5 5804C11443.5 5804 11358.5 5713 11358.5 5550ZM12261 5560C12263 5663 12316 5738 12470 5738C12607 5738 12649 5691 12649 5614C12649 5544 12612 5509 12528 5495L12371 5471C12256 5454 12203 5397 12203 5297C12203 5190 12283 5105 12455 5105C12630 5105 12716 5193 12725 5321H12644C12635 5231 12580 5170 12455 5170C12337 5170 12287 5221 12287 5295C12287 5347 12311 5388 12387 5400L12553 5425C12671 5444 12733 5496 12733 5603C12733 5730 12656 5803 12470 5803C12255 5803 12180 5691 12180 5560H12261ZM13448.3 5788V5123H13775.3C13917.3 5123 13966.3 5196 13966.3 5288C13966.3 5384 13908.3 5432 13841.3 5444C13914.3 5453 13977.3 5504 13977.3 5609C13977.3 5718 13911.3 5788 13773.3 5788H13448.3ZM13531.3 5721H13765.3C13858.3 5721 13890.3 5671 13890.3 5600C13890.3 5521 13849.3 5475 13749.3 5475H13531.3V5721ZM13531.3 5412H13747.3C13841.3 5412 13879.3 5373 13879.3 5300C13879.3 5225 13851.3 5190 13758.3 5190H13531.3V5412ZM14278 5788V5123H14361V5721H14709V5788H14278ZM15250.5 5805C15019.5 5805 14918.5 5656 14918.5 5455C14918.5 5257 15019.5 5105 15250.5 5105C15481.5 5105 15581.5 5258 15581.5 5455C15581.5 5655 15481.5 5805 15250.5 5805ZM15005.5 5455C15005.5 5642 15080.5 5736 15250.5 5736C15420.5 5736 15494.5 5642 15494.5 5455C15494.5 5268 15420.5 5174 15250.5 5174C15080.5 5174 15005.5 5268 15005.5 5455ZM16185.6 5805C15956.6 5805 15853.6 5657 15853.6 5455C15853.6 5255 15958.6 5105 16187.6 5105C16392.6 5105 16485.6 5206 16502.6 5371H16417.6C16403.6 5241 16330.6 5174 16186.6 5174C16019.6 5174 15940.6 5269 15940.6 5455C15940.6 5641 16017.6 5736 16184.6 5736C16335.6 5736 16411.6 5658 16419.6 5523H16504.6C16494.6 5692 16399.6 5805 16185.6 5805ZM16799.1 5788V5123H16882.1V5501L17226.1 5123H17335.1L17072.1 5405L17351.1 5784V5788H17250.1L17016.1 5464L16882.1 5608V5788H16799.1ZM17890.8 5805C17661.8 5805 17558.8 5657 17558.8 5455C17558.8 5255 17663.8 5105 17892.8 5105C18097.8 5105 18190.8 5206 18207.8 5371H18122.8C18108.8 5241 18035.8 5174 17891.8 5174C17724.8 5174 17645.8 5269 17645.8 5455C17645.8 5641 17722.8 5736 17889.8 5736C18040.8 5736 18116.8 5658 18124.8 5523H18209.8C18199.8 5692 18104.8 5805 17890.8 5805ZM18504.3 5788V5123H18587.3V5411H18974.3V5123H19056.3V5788H18974.3V5478H18587.3V5788H18504.3ZM19956.8 5788H19871.8L19806.8 5618H19477.8L19412.8 5788H19328.8L19581.8 5123H19704.8L19956.8 5788ZM19502.8 5551H19781.8L19642.8 5183L19502.8 5551ZM20213.1 5788V5721H20354.1V5190H20213.1V5123H20578.1V5190H20437.1V5721H20578.1V5788H20213.1ZM21372.8 5731V5123H21454.8V5788H21315.8L21013.8 5266C20996.8 5234 20981.8 5205 20971.8 5179V5788H20888.8V5123H21028.8L21330.8 5646C21343.8 5669 21358.8 5702 21372.8 5731ZM9561 6798H9476L9411 6628H9082L9017 6798H8933L9186 6133H9309L9561 6798ZM9107 6561H9386L9247 6193L9107 6561ZM10396.3 6741V6133H10478.3V6798H10339.3L10037.3 6276C10020.3 6244 10005.3 6215 9995.3 6189V6798H9912.3V6133H10052.3L10354.3 6656C10367.3 6679 10382.3 6712 10396.3 6741ZM10885.4 6798V6133H11161.4C11379.4 6133 11471.4 6283 11471.4 6464C11471.4 6647 11379.4 6798 11161.4 6798H10885.4ZM10968.4 6731H11146.4C11323.4 6731 11384.4 6633 11384.4 6464C11384.4 6295 11324.4 6200 11146.4 6200H10968.4V6731ZM12650.3 6815C12421.3 6815 12318.3 6667 12318.3 6465C12318.3 6265 12423.3 6115 12652.3 6115C12857.3 6115 12950.3 6216 12967.3 6381H12882.3C12868.3 6251 12795.3 6184 12651.3 6184C12484.3 6184 12405.3 6279 12405.3 6465C12405.3 6651 12482.3 6746 12649.3 6746C12800.3 6746 12876.3 6668 12884.3 6533H12969.3C12959.3 6702 12864.3 6815 12650.3 6815ZM13836.9 6692C13836.9 6741 13843.9 6773 13849.9 6798H13768.9C13761.9 6776 13756.9 6743 13756.9 6695V6634C13756.9 6539 13705.9 6500 13613.9 6500H13426.9V6798H13343.9V6133H13653.9C13790.9 6133 13857.9 6201 13857.9 6308C13857.9 6397 13802.9 6459 13728.9 6476C13791.9 6494 13836.9 6524 13836.9 6622V6692ZM13426.9 6438H13643.9C13736.9 6438 13770.9 6391 13770.9 6315C13770.9 6238 13731.9 6200 13644.9 6200H13426.9V6438ZM14151 6133H14246L14397 6408C14412 6437 14427 6465 14443 6493C14458 6465 14474 6437 14489 6408L14641 6133H14734L14484 6565V6798H14401V6565L14151 6133ZM15364.6 6133C15507.6 6133 15565.6 6220 15565.6 6327C15565.6 6433 15507.6 6522 15360.6 6522H15143.6V6798H15059.6V6133H15364.6ZM15143.6 6455H15343.6C15442.6 6455 15478.6 6403 15478.6 6327C15478.6 6248 15442.6 6200 15346.6 6200H15143.6V6455ZM16111.3 6799V6200H15871.3V6133H16431.3V6200H16193.3V6799H16111.3ZM17048.2 6815C16817.2 6815 16716.2 6666 16716.2 6465C16716.2 6267 16817.2 6115 17048.2 6115C17279.2 6115 17379.2 6268 17379.2 6465C17379.2 6665 17279.2 6815 17048.2 6815ZM16803.2 6465C16803.2 6652 16878.2 6746 17048.2 6746C17218.2 6746 17292.2 6652 17292.2 6465C17292.2 6278 17218.2 6184 17048.2 6184C16878.2 6184 16803.2 6278 16803.2 6465ZM18557.9 6815C18328.9 6815 18225.9 6667 18225.9 6465C18225.9 6265 18330.9 6115 18559.9 6115C18764.9 6115 18857.9 6216 18874.9 6381H18789.9C18775.9 6251 18702.9 6184 18558.9 6184C18391.9 6184 18312.9 6279 18312.9 6465C18312.9 6651 18389.9 6746 18556.9 6746C18707.9 6746 18783.9 6668 18791.9 6533H18876.9C18866.9 6702 18771.9 6815 18557.9 6815ZM19251.4 6798V6133H19334.4V6731H19682.4V6798H19251.4ZM20006.5 6560V6133H20089.5V6550C20089.5 6702 20152.5 6745 20276.5 6745C20400.5 6745 20463.5 6702 20463.5 6550V6133H20546.5V6560C20546.5 6722 20461.5 6814 20276.5 6814C20091.5 6814 20006.5 6723 20006.5 6560ZM20939.9 6798V6133H21266.9C21408.9 6133 21457.9 6206 21457.9 6298C21457.9 6394 21399.9 6442 21332.9 6454C21405.9 6463 21468.9 6514 21468.9 6619C21468.9 6728 21402.9 6798 21264.9 6798H20939.9ZM21022.9 6731H21256.9C21349.9 6731 21381.9 6681 21381.9 6610C21381.9 6531 21340.9 6485 21240.9 6485H21022.9V6731ZM21022.9 6422H21238.9C21332.9 6422 21370.9 6383 21370.9 6310C21370.9 6235 21342.9 6200 21249.9 6200H21022.9V6422Z"/>
</mask>
<path d="M8988 5788V5123H9315C9457 5123 9506 5196 9506 5288C9506 5384 9448 5432 9381 5444C9454 5453 9517 5504 9517 5609C9517 5718 9451 5788 9313 5788H8988ZM9071 5721H9305C9398 5721 9430 5671 9430 5600C9430 5521 9389 5475 9289 5475H9071V5721ZM9071 5412H9287C9381 5412 9419 5373 9419 5300C9419 5225 9391 5190 9298 5190H9071V5412ZM9802.65 5788V5721H9943.65V5190H9802.65V5123H10167.6V5190H10026.6V5721H10167.6V5788H9802.65ZM10962.4 5731V5123H11044.4V5788H10905.4L10603.4 5266C10586.4 5234 10571.4 5205 10561.4 5179V5788H10478.4V5123H10618.4L10920.4 5646C10933.4 5669 10948.4 5702 10962.4 5731ZM11358.5 5550V5123H11441.5V5540C11441.5 5692 11504.5 5735 11628.5 5735C11752.5 5735 11815.5 5692 11815.5 5540V5123H11898.5V5550C11898.5 5712 11813.5 5804 11628.5 5804C11443.5 5804 11358.5 5713 11358.5 5550ZM12261 5560C12263 5663 12316 5738 12470 5738C12607 5738 12649 5691 12649 5614C12649 5544 12612 5509 12528 5495L12371 5471C12256 5454 12203 5397 12203 5297C12203 5190 12283 5105 12455 5105C12630 5105 12716 5193 12725 5321H12644C12635 5231 12580 5170 12455 5170C12337 5170 12287 5221 12287 5295C12287 5347 12311 5388 12387 5400L12553 5425C12671 5444 12733 5496 12733 5603C12733 5730 12656 5803 12470 5803C12255 5803 12180 5691 12180 5560H12261ZM13448.3 5788V5123H13775.3C13917.3 5123 13966.3 5196 13966.3 5288C13966.3 5384 13908.3 5432 13841.3 5444C13914.3 5453 13977.3 5504 13977.3 5609C13977.3 5718 13911.3 5788 13773.3 5788H13448.3ZM13531.3 5721H13765.3C13858.3 5721 13890.3 5671 13890.3 5600C13890.3 5521 13849.3 5475 13749.3 5475H13531.3V5721ZM13531.3 5412H13747.3C13841.3 5412 13879.3 5373 13879.3 5300C13879.3 5225 13851.3 5190 13758.3 5190H13531.3V5412ZM14278 5788V5123H14361V5721H14709V5788H14278ZM15250.5 5805C15019.5 5805 14918.5 5656 14918.5 5455C14918.5 5257 15019.5 5105 15250.5 5105C15481.5 5105 15581.5 5258 15581.5 5455C15581.5 5655 15481.5 5805 15250.5 5805ZM15005.5 5455C15005.5 5642 15080.5 5736 15250.5 5736C15420.5 5736 15494.5 5642 15494.5 5455C15494.5 5268 15420.5 5174 15250.5 5174C15080.5 5174 15005.5 5268 15005.5 5455ZM16185.6 5805C15956.6 5805 15853.6 5657 15853.6 5455C15853.6 5255 15958.6 5105 16187.6 5105C16392.6 5105 16485.6 5206 16502.6 5371H16417.6C16403.6 5241 16330.6 5174 16186.6 5174C16019.6 5174 15940.6 5269 15940.6 5455C15940.6 5641 16017.6 5736 16184.6 5736C16335.6 5736 16411.6 5658 16419.6 5523H16504.6C16494.6 5692 16399.6 5805 16185.6 5805ZM16799.1 5788V5123H16882.1V5501L17226.1 5123H17335.1L17072.1 5405L17351.1 5784V5788H17250.1L17016.1 5464L16882.1 5608V5788H16799.1ZM17890.8 5805C17661.8 5805 17558.8 5657 17558.8 5455C17558.8 5255 17663.8 5105 17892.8 5105C18097.8 5105 18190.8 5206 18207.8 5371H18122.8C18108.8 5241 18035.8 5174 17891.8 5174C17724.8 5174 17645.8 5269 17645.8 5455C17645.8 5641 17722.8 5736 17889.8 5736C18040.8 5736 18116.8 5658 18124.8 5523H18209.8C18199.8 5692 18104.8 5805 17890.8 5805ZM18504.3 5788V5123H18587.3V5411H18974.3V5123H19056.3V5788H18974.3V5478H18587.3V5788H18504.3ZM19956.8 5788H19871.8L19806.8 5618H19477.8L19412.8 5788H19328.8L19581.8 5123H19704.8L19956.8 5788ZM19502.8 5551H19781.8L19642.8 5183L19502.8 5551ZM20213.1 5788V5721H20354.1V5190H20213.1V5123H20578.1V5190H20437.1V5721H20578.1V5788H20213.1ZM21372.8 5731V5123H21454.8V5788H21315.8L21013.8 5266C20996.8 5234 20981.8 5205 20971.8 5179V5788H20888.8V5123H21028.8L21330.8 5646C21343.8 5669 21358.8 5702 21372.8 5731ZM9561 6798H9476L9411 6628H9082L9017 6798H8933L9186 6133H9309L9561 6798ZM9107 6561H9386L9247 6193L9107 6561ZM10396.3 6741V6133H10478.3V6798H10339.3L10037.3 6276C10020.3 6244 10005.3 6215 9995.3 6189V6798H9912.3V6133H10052.3L10354.3 6656C10367.3 6679 10382.3 6712 10396.3 6741ZM10885.4 6798V6133H11161.4C11379.4 6133 11471.4 6283 11471.4 6464C11471.4 6647 11379.4 6798 11161.4 6798H10885.4ZM10968.4 6731H11146.4C11323.4 6731 11384.4 6633 11384.4 6464C11384.4 6295 11324.4 6200 11146.4 6200H10968.4V6731ZM12650.3 6815C12421.3 6815 12318.3 6667 12318.3 6465C12318.3 6265 12423.3 6115 12652.3 6115C12857.3 6115 12950.3 6216 12967.3 6381H12882.3C12868.3 6251 12795.3 6184 12651.3 6184C12484.3 6184 12405.3 6279 12405.3 6465C12405.3 6651 12482.3 6746 12649.3 6746C12800.3 6746 12876.3 6668 12884.3 6533H12969.3C12959.3 6702 12864.3 6815 12650.3 6815ZM13836.9 6692C13836.9 6741 13843.9 6773 13849.9 6798H13768.9C13761.9 6776 13756.9 6743 13756.9 6695V6634C13756.9 6539 13705.9 6500 13613.9 6500H13426.9V6798H13343.9V6133H13653.9C13790.9 6133 13857.9 6201 13857.9 6308C13857.9 6397 13802.9 6459 13728.9 6476C13791.9 6494 13836.9 6524 13836.9 6622V6692ZM13426.9 6438H13643.9C13736.9 6438 13770.9 6391 13770.9 6315C13770.9 6238 13731.9 6200 13644.9 6200H13426.9V6438ZM14151 6133H14246L14397 6408C14412 6437 14427 6465 14443 6493C14458 6465 14474 6437 14489 6408L14641 6133H14734L14484 6565V6798H14401V6565L14151 6133ZM15364.6 6133C15507.6 6133 15565.6 6220 15565.6 6327C15565.6 6433 15507.6 6522 15360.6 6522H15143.6V6798H15059.6V6133H15364.6ZM15143.6 6455H15343.6C15442.6 6455 15478.6 6403 15478.6 6327C15478.6 6248 15442.6 6200 15346.6 6200H15143.6V6455ZM16111.3 6799V6200H15871.3V6133H16431.3V6200H16193.3V6799H16111.3ZM17048.2 6815C16817.2 6815 16716.2 6666 16716.2 6465C16716.2 6267 16817.2 6115 17048.2 6115C17279.2 6115 17379.2 6268 17379.2 6465C17379.2 6665 17279.2 6815 17048.2 6815ZM16803.2 6465C16803.2 6652 16878.2 6746 17048.2 6746C17218.2 6746 17292.2 6652 17292.2 6465C17292.2 6278 17218.2 6184 17048.2 6184C16878.2 6184 16803.2 6278 16803.2 6465ZM18557.9 6815C18328.9 6815 18225.9 6667 18225.9 6465C18225.9 6265 18330.9 6115 18559.9 6115C18764.9 6115 18857.9 6216 18874.9 6381H18789.9C18775.9 6251 18702.9 6184 18558.9 6184C18391.9 6184 18312.9 6279 18312.9 6465C18312.9 6651 18389.9 6746 18556.9 6746C18707.9 6746 18783.9 6668 18791.9 6533H18876.9C18866.9 6702 18771.9 6815 18557.9 6815ZM19251.4 6798V6133H19334.4V6731H19682.4V6798H19251.4ZM20006.5 6560V6133H20089.5V6550C20089.5 6702 20152.5 6745 20276.5 6745C20400.5 6745 20463.5 6702 20463.5 6550V6133H20546.5V6560C20546.5 6722 20461.5 6814 20276.5 6814C20091.5 6814 20006.5 6723 20006.5 6560ZM20939.9 6798V6133H21266.9C21408.9 6133 21457.9 6206 21457.9 6298C21457.9 6394 21399.9 6442 21332.9 6454C21405.9 6463 21468.9 6514 21468.9 6619C21468.9 6728 21402.9 6798 21264.9 6798H20939.9ZM21022.9 6731H21256.9C21349.9 6731 21381.9 6681 21381.9 6610C21381.9 6531 21340.9 6485 21240.9 6485H21022.9V6731ZM21022.9 6422H21238.9C21332.9 6422 21370.9 6383 21370.9 6310C21370.9 6235 21342.9 6200 21249.9 6200H21022.9V6422Z" fill="white"/>
<path d="M8988 5788H8978V5798H8988V5788ZM8988 5123V5113H8978V5123H8988ZM9381 5444L9379.24 5434.16L9379.78 5453.92L9381 5444ZM9071 5721H9061V5731H9071V5721ZM9071 5475V5465H9061V5475H9071ZM9071 5412H9061V5422H9071V5412ZM9071 5190V5180H9061V5190H9071ZM8998 5788V5123H8978V5788H8998ZM8988 5133H9315V5113H8988V5133ZM9315 5133C9384.38 5133 9429.2 5150.82 9456.71 5178.1C9484.22 5205.38 9496 5243.69 9496 5288H9516C9516 5240.31 9503.28 5196.12 9470.79 5163.9C9438.3 5131.68 9387.62 5113 9315 5113V5133ZM9496 5288C9496 5333.88 9482.2 5367.4 9461.18 5390.82C9440.07 5414.35 9410.99 5428.47 9379.24 5434.16L9382.76 5453.84C9418.01 5447.53 9451.43 5431.65 9476.07 5404.18C9500.8 5376.6 9516 5338.12 9516 5288H9496ZM9379.78 5453.92C9414.38 5458.19 9446.03 5472.33 9469.02 5497.28C9491.93 5522.14 9507 5558.59 9507 5609H9527C9527 5554.41 9510.57 5512.86 9483.73 5483.72C9456.97 5454.67 9420.62 5438.81 9382.22 5434.08L9379.78 5453.92ZM9507 5609C9507 5661.46 9491.18 5703.25 9459.97 5732.02C9428.65 5760.91 9380.41 5778 9313 5778V5798C9383.59 5798 9437.35 5780.09 9473.53 5746.73C9509.82 5713.25 9527 5665.54 9527 5609H9507ZM9313 5778H8988V5798H9313V5778ZM9071 5731H9305V5711H9071V5731ZM9305 5731C9353.23 5731 9387.6 5718 9409.74 5693.89C9431.73 5669.94 9440 5636.8 9440 5600H9420C9420 5634.2 9412.27 5661.56 9395.01 5680.36C9377.9 5699 9349.77 5711 9305 5711V5731ZM9440 5600C9440 5558.86 9429.3 5524.5 9403.85 5500.59C9378.52 5476.79 9340.34 5465 9289 5465V5485C9337.66 5485 9369.98 5496.21 9390.15 5515.16C9410.2 5534 9420 5562.14 9420 5600H9440ZM9289 5465H9071V5485H9289V5465ZM9061 5475V5721H9081V5475H9061ZM9071 5422H9287V5402H9071V5422ZM9287 5422C9335.11 5422 9371.01 5412.06 9394.89 5390.85C9419.03 5369.41 9429 5338.16 9429 5300H9409C9409 5334.84 9399.97 5359.59 9381.61 5375.9C9362.99 5392.44 9332.89 5402 9287 5402V5422ZM9429 5300C9429 5261.65 9421.92 5230.7 9400.35 5209.71C9378.88 5188.82 9345.32 5180 9298 5180V5200C9343.68 5200 9370.62 5208.68 9386.4 5224.04C9402.08 5239.3 9409 5263.35 9409 5300H9429ZM9298 5180H9071V5200H9298V5180ZM9061 5190V5412H9081V5190H9061ZM9802.65 5788H9792.65V5798H9802.65V5788ZM9802.65 5721V5711H9792.65V5721H9802.65ZM9943.65 5721V5731H9953.65V5721H9943.65ZM9943.65 5190H9953.65V5180H9943.65V5190ZM9802.65 5190H9792.65V5200H9802.65V5190ZM9802.65 5123V5113H9792.65V5123H9802.65ZM10167.6 5123H10177.6V5113H10167.6V5123ZM10167.6 5190V5200H10177.6V5190H10167.6ZM10026.6 5190V5180H10016.6V5190H10026.6ZM10026.6 5721H10016.6V5731H10026.6V5721ZM10167.6 5721H10177.6V5711H10167.6V5721ZM10167.6 5788V5798H10177.6V5788H10167.6ZM9812.65 5788V5721H9792.65V5788H9812.65ZM9802.65 5731H9943.65V5711H9802.65V5731ZM9953.65 5721V5190H9933.65V5721H9953.65ZM9943.65 5180H9802.65V5200H9943.65V5180ZM9812.65 5190V5123H9792.65V5190H9812.65ZM9802.65 5133H10167.6V5113H9802.65V5133ZM10157.6 5123V5190H10177.6V5123H10157.6ZM10167.6 5180H10026.6V5200H10167.6V5180ZM10016.6 5190V5721H10036.6V5190H10016.6ZM10026.6 5731H10167.6V5711H10026.6V5731ZM10157.6 5721V5788H10177.6V5721H10157.6ZM10167.6 5778H9802.65V5798H10167.6V5778ZM10962.4 5731L10953.3 5735.35L10972.4 5731H10962.4ZM10962.4 5123V5113H10952.4V5123H10962.4ZM11044.4 5123H11054.4V5113H11044.4V5123ZM11044.4 5788V5798H11054.4V5788H11044.4ZM10905.4 5788L10896.7 5793.01L10899.6 5798H10905.4V5788ZM10603.4 5266L10594.5 5270.69L10594.6 5270.85L10594.7 5271.01L10603.4 5266ZM10561.4 5179L10570.7 5175.41L10551.4 5179H10561.4ZM10561.4 5788V5798H10571.4V5788H10561.4ZM10478.4 5788H10468.4V5798H10478.4V5788ZM10478.4 5123V5113H10468.4V5123H10478.4ZM10618.4 5123L10627 5118L10624.1 5113H10618.4V5123ZM10920.4 5646L10929.1 5641.08L10929 5641.04L10929 5641L10920.4 5646ZM10972.4 5731V5123H10952.4V5731H10972.4ZM10962.4 5133H11044.4V5113H10962.4V5133ZM11034.4 5123V5788H11054.4V5123H11034.4ZM11044.4 5778H10905.4V5798H11044.4V5778ZM10914 5782.99L10612 5260.99L10594.7 5271.01L10896.7 5793.01L10914 5782.99ZM10612.2 5261.31C10595.1 5229.24 10580.4 5200.76 10570.7 5175.41L10552 5182.59C10562.3 5209.24 10577.6 5238.76 10594.5 5270.69L10612.2 5261.31ZM10551.4 5179V5788H10571.4V5179H10551.4ZM10561.4 5778H10478.4V5798H10561.4V5778ZM10488.4 5788V5123H10468.4V5788H10488.4ZM10478.4 5133H10618.4V5113H10478.4V5133ZM10609.7 5128L10911.7 5651L10929 5641L10627 5118L10609.7 5128ZM10911.6 5650.92C10924.4 5673.54 10939.2 5705.96 10953.3 5735.35L10971.4 5726.65C10957.5 5698.04 10942.3 5664.46 10929.1 5641.08L10911.6 5650.92ZM11358.5 5123V5113H11348.5V5123H11358.5ZM11441.5 5123H11451.5V5113H11441.5V5123ZM11815.5 5123V5113H11805.5V5123H11815.5ZM11898.5 5123H11908.5V5113H11898.5V5123ZM11368.5 5550V5123H11348.5V5550H11368.5ZM11358.5 5133H11441.5V5113H11358.5V5133ZM11431.5 5123V5540H11451.5V5123H11431.5ZM11431.5 5540C11431.5 5617.02 11447.4 5669.18 11481.6 5701.74C11515.7 5734.22 11565.7 5745 11628.5 5745V5725C11567.2 5725 11523.8 5714.28 11495.4 5687.26C11467.1 5660.32 11451.5 5614.98 11451.5 5540H11431.5ZM11628.5 5745C11691.2 5745 11741.3 5734.22 11775.4 5701.74C11809.6 5669.18 11825.5 5617.02 11825.5 5540H11805.5C11805.5 5614.98 11789.9 5660.32 11761.6 5687.26C11733.2 5714.28 11689.7 5725 11628.5 5725V5745ZM11825.5 5540V5123H11805.5V5540H11825.5ZM11815.5 5133H11898.5V5113H11815.5V5133ZM11888.5 5123V5550H11908.5V5123H11888.5ZM11888.5 5550C11888.5 5629.34 11867.7 5689.84 11825.9 5730.59C11784 5771.38 11719.4 5794 11628.5 5794V5814C11722.5 5814 11792.9 5790.62 11839.8 5744.91C11886.8 5699.16 11908.5 5632.66 11908.5 5550H11888.5ZM11628.5 5794C11537.5 5794 11472.9 5771.62 11431.1 5730.95C11389.3 5690.34 11368.5 5629.85 11368.5 5550H11348.5C11348.5 5633.15 11370.2 5699.66 11417.1 5745.3C11464 5790.88 11534.5 5814 11628.5 5814V5794ZM12261 5560L12271 5559.81L12270.8 5550H12261V5560ZM12528 5495L12529.7 5485.14L12529.6 5485.12L12529.5 5485.11L12528 5495ZM12371 5471L12372.5 5461.11L12372.5 5461.11L12372.5 5461.11L12371 5471ZM12725 5321V5331H12735.8L12735 5320.3L12725 5321ZM12644 5321L12634.1 5322L12635 5331H12644V5321ZM12387 5400L12385.5 5409.88L12385.5 5409.88L12385.5 5409.89L12387 5400ZM12553 5425L12554.6 5415.13L12554.6 5415.12L12554.5 5415.11L12553 5425ZM12180 5560V5550H12170V5560H12180ZM12251 5560.19C12252.1 5613.26 12266.3 5660.72 12301.6 5694.82C12336.9 5728.89 12391.5 5748 12470 5748V5728C12394.5 5728 12345.7 5709.61 12315.5 5680.43C12285.3 5651.28 12272 5609.74 12271 5559.81L12251 5560.19ZM12470 5748C12539.3 5748 12586.8 5736.2 12617 5712.78C12647.9 5688.87 12659 5654.37 12659 5614H12639C12639 5650.63 12629.1 5678.13 12604.8 5696.97C12579.8 5716.3 12537.8 5728 12470 5728V5748ZM12659 5614C12659 5577.15 12649.2 5547.99 12627 5526.34C12605.1 5505.02 12572.5 5492.28 12529.7 5485.14L12526.4 5504.86C12567.5 5511.72 12595.4 5523.48 12613.1 5540.66C12630.3 5557.51 12639 5580.85 12639 5614H12659ZM12529.5 5485.11L12372.5 5461.11L12369.5 5480.89L12526.5 5504.89L12529.5 5485.11ZM12372.5 5461.11C12316.2 5452.79 12276.7 5434.9 12251.1 5408.21C12225.8 5381.69 12213 5345.19 12213 5297H12193C12193 5348.81 12206.8 5390.81 12236.7 5422.04C12266.4 5453.1 12310.8 5472.21 12369.6 5480.89L12372.5 5461.11ZM12213 5297C12213 5246.15 12231.9 5201.08 12270.9 5168.55C12310.1 5135.87 12370.6 5115 12455 5115V5095C12367.5 5095 12302 5116.63 12258.1 5153.2C12214.1 5189.92 12193 5240.85 12193 5297H12213ZM12455 5115C12540.9 5115 12603.6 5136.59 12645.8 5172.6C12687.9 5208.54 12710.7 5259.83 12715.1 5321.7L12735 5320.3C12730.4 5254.17 12705.7 5197.46 12658.8 5157.4C12612 5117.41 12544.1 5095 12455 5095V5115ZM12725 5311H12644V5331H12725V5311ZM12654 5320C12649.3 5273.22 12632.5 5232.81 12599.6 5204.2C12566.7 5175.64 12519.1 5160 12455 5160V5180C12516 5180 12558.3 5194.86 12586.5 5219.3C12614.5 5243.69 12629.8 5278.78 12634.1 5322L12654 5320ZM12455 5160C12394.8 5160 12350.2 5172.99 12320.5 5196.97C12290.5 5221.22 12277 5255.59 12277 5295H12297C12297 5260.41 12308.6 5232.28 12333.1 5212.53C12357.9 5192.51 12397.3 5180 12455 5180V5160ZM12277 5295C12277 5322.49 12283.4 5348.34 12300.9 5368.97C12318.4 5389.61 12346 5403.64 12385.5 5409.88L12388.6 5390.12C12352.1 5384.36 12329.6 5371.89 12316.2 5356.03C12302.7 5340.16 12297 5319.51 12297 5295H12277ZM12385.5 5409.89L12551.5 5434.89L12554.5 5415.11L12388.5 5390.11L12385.5 5409.89ZM12551.4 5434.87C12609.5 5444.22 12652.2 5461.48 12680.4 5488.25C12708.2 5514.7 12723 5551.58 12723 5603H12743C12743 5547.42 12726.8 5504.8 12694.2 5473.75C12661.8 5443.02 12614.5 5424.78 12554.6 5415.13L12551.4 5434.87ZM12723 5603C12723 5664.38 12704.5 5711.11 12665 5742.83C12625.1 5774.9 12562 5793 12470 5793V5813C12564.1 5813 12632.5 5794.6 12677.5 5758.42C12723 5721.89 12743 5668.62 12743 5603H12723ZM12470 5793C12364.2 5793 12294.6 5765.45 12251.4 5723.46C12208.2 5681.48 12190 5623.64 12190 5560H12170C12170 5627.36 12189.3 5691.02 12237.4 5737.79C12285.5 5784.55 12360.9 5813 12470 5813V5793ZM12180 5570H12261V5550H12180V5570ZM13448.3 5788H13438.3V5798H13448.3V5788ZM13448.3 5123V5113H13438.3V5123H13448.3ZM13841.3 5444L13839.5 5434.16L13840.1 5453.92L13841.3 5444ZM13531.3 5721H13521.3V5731H13531.3V5721ZM13531.3 5475V5465H13521.3V5475H13531.3ZM13531.3 5412H13521.3V5422H13531.3V5412ZM13531.3 5190V5180H13521.3V5190H13531.3ZM13458.3 5788V5123H13438.3V5788H13458.3ZM13448.3 5133H13775.3V5113H13448.3V5133ZM13775.3 5133C13844.7 5133 13889.5 5150.82 13917 5178.1C13944.5 5205.38 13956.3 5243.69 13956.3 5288H13976.3C13976.3 5240.31 13963.6 5196.12 13931.1 5163.9C13898.6 5131.68 13847.9 5113 13775.3 5113V5133ZM13956.3 5288C13956.3 5333.88 13942.5 5367.4 13921.5 5390.82C13900.4 5414.35 13871.3 5428.47 13839.5 5434.16L13843.1 5453.84C13878.3 5447.53 13911.7 5431.65 13936.4 5404.18C13961.1 5376.6 13976.3 5338.12 13976.3 5288H13956.3ZM13840.1 5453.92C13874.7 5458.19 13906.3 5472.33 13929.3 5497.28C13952.2 5522.14 13967.3 5558.59 13967.3 5609H13987.3C13987.3 5554.41 13970.9 5512.86 13944 5483.72C13917.3 5454.67 13880.9 5438.81 13842.5 5434.08L13840.1 5453.92ZM13967.3 5609C13967.3 5661.46 13951.5 5703.25 13920.3 5732.02C13889 5760.91 13840.7 5778 13773.3 5778V5798C13843.9 5798 13897.7 5780.09 13933.8 5746.73C13970.1 5713.25 13987.3 5665.54 13987.3 5609H13967.3ZM13773.3 5778H13448.3V5798H13773.3V5778ZM13531.3 5731H13765.3V5711H13531.3V5731ZM13765.3 5731C13813.5 5731 13847.9 5718 13870.1 5693.89C13892 5669.94 13900.3 5636.8 13900.3 5600H13880.3C13880.3 5634.2 13872.6 5661.56 13855.3 5680.36C13838.2 5699 13810.1 5711 13765.3 5711V5731ZM13900.3 5600C13900.3 5558.86 13889.6 5524.5 13864.2 5500.59C13838.8 5476.79 13800.7 5465 13749.3 5465V5485C13798 5485 13830.3 5496.21 13850.5 5515.16C13870.5 5534 13880.3 5562.14 13880.3 5600H13900.3ZM13749.3 5465H13531.3V5485H13749.3V5465ZM13521.3 5475V5721H13541.3V5475H13521.3ZM13531.3 5422H13747.3V5402H13531.3V5422ZM13747.3 5422C13795.4 5422 13831.3 5412.06 13855.2 5390.85C13879.3 5369.41 13889.3 5338.16 13889.3 5300H13869.3C13869.3 5334.84 13860.3 5359.59 13841.9 5375.9C13823.3 5392.44 13793.2 5402 13747.3 5402V5422ZM13889.3 5300C13889.3 5261.65 13882.2 5230.7 13860.7 5209.71C13839.2 5188.82 13805.6 5180 13758.3 5180V5200C13804 5200 13830.9 5208.68 13846.7 5224.04C13862.4 5239.3 13869.3 5263.35 13869.3 5300H13889.3ZM13758.3 5180H13531.3V5200H13758.3V5180ZM13521.3 5190V5412H13541.3V5190H13521.3ZM14278 5788H14268V5798H14278V5788ZM14278 5123V5113H14268V5123H14278ZM14361 5123H14371V5113H14361V5123ZM14361 5721H14351V5731H14361V5721ZM14709 5721H14719V5711H14709V5721ZM14709 5788V5798H14719V5788H14709ZM14288 5788V5123H14268V5788H14288ZM14278 5133H14361V5113H14278V5133ZM14351 5123V5721H14371V5123H14351ZM14361 5731H14709V5711H14361V5731ZM14699 5721V5788H14719V5721H14699ZM14709 5778H14278V5798H14709V5778ZM15250.5 5795C15137.3 5795 15057.3 5758.58 15005.4 5698.82C14953.4 5638.83 14928.5 5553.97 14928.5 5455H14908.5C14908.5 5557.03 14934.1 5647.17 14990.3 5711.93C15046.7 5776.92 15132.7 5815 15250.5 5815V5795ZM14928.5 5455C14928.5 5357.56 14953.4 5272.67 15005.4 5212.28C15057.3 5152.13 15137.3 5115 15250.5 5115V5095C15132.7 5095 15046.7 5133.87 14990.3 5199.22C14934.1 5264.33 14908.5 5354.44 14908.5 5455H14928.5ZM15250.5 5115C15363.6 5115 15443.4 5152.37 15495 5212.63C15546.9 5273.15 15571.5 5358.05 15571.5 5455H15591.5C15591.5 5354.95 15566.1 5264.85 15510.2 5199.62C15454.1 5134.13 15368.4 5095 15250.5 5095V5115ZM15571.5 5455C15571.5 5553.48 15546.9 5638.35 15495.1 5698.47C15443.4 5758.34 15363.7 5795 15250.5 5795V5815C15368.3 5815 15454.1 5776.66 15510.2 5711.53C15566.1 5646.65 15591.5 5556.52 15591.5 5455H15571.5ZM14995.5 5455C14995.5 5549.55 15014.4 5622.63 15056.6 5672.12C15099.2 5721.94 15163.7 5746 15250.5 5746V5726C15167.3 5726 15109.3 5703.06 15071.9 5659.13C15034.1 5614.87 15015.5 5547.45 15015.5 5455H14995.5ZM15250.5 5746C15337.3 5746 15401.6 5721.93 15443.9 5672.09C15485.8 5622.6 15504.5 5549.52 15504.5 5455H15484.5C15484.5 5547.48 15466.2 5614.9 15428.6 5659.16C15391.4 5703.07 15333.7 5726 15250.5 5726V5746ZM15504.5 5455C15504.5 5360.48 15485.8 5287.4 15443.9 5237.91C15401.6 5188.07 15337.3 5164 15250.5 5164V5184C15333.7 5184 15391.4 5206.93 15428.6 5250.84C15466.2 5295.1 15484.5 5362.52 15484.5 5455H15504.5ZM15250.5 5164C15163.7 5164 15099.2 5188.06 15056.6 5237.88C15014.4 5287.37 14995.5 5360.45 14995.5 5455H15015.5C15015.5 5362.55 15034.1 5295.13 15071.9 5250.87C15109.3 5206.94 15167.3 5184 15250.5 5184V5164ZM16502.6 5371V5381H16513.7L16512.6 5369.98L16502.6 5371ZM16417.6 5371L16407.7 5372.07L16408.6 5381H16417.6V5371ZM16419.6 5523V5513H16410.2L16409.6 5522.41L16419.6 5523ZM16504.6 5523L16514.6 5523.59L16515.2 5513H16504.6V5523ZM16185.6 5795C16073.4 5795 15993.4 5758.83 15941.3 5699.17C15889 5639.3 15863.6 5554.43 15863.6 5455H15843.6C15843.6 5557.57 15869.8 5647.7 15926.2 5712.33C15982.9 5777.17 16068.8 5815 16185.6 5815V5795ZM15863.6 5455C15863.6 5356.63 15889.4 5271.75 15942.3 5211.6C15994.9 5151.65 16075.4 5115 16187.6 5115V5095C16070.8 5095 15984.3 5133.35 15927.2 5198.4C15870.3 5263.25 15843.6 5353.37 15843.6 5455H15863.6ZM16187.6 5115C16288.5 5115 16360.3 5139.85 16408.9 5183.56C16457.5 5227.27 16484.3 5291.11 16492.7 5372.02L16512.6 5369.98C16503.9 5285.89 16475.7 5216.73 16422.3 5168.69C16368.9 5120.65 16291.7 5095 16187.6 5095V5115ZM16502.6 5361H16417.6V5381H16502.6V5361ZM16427.6 5369.93C16420.4 5303.31 16397.9 5251.36 16357.4 5216.2C16317 5181.09 16260.1 5164 16186.6 5164V5184C16257.2 5184 16308.7 5200.41 16344.3 5231.3C16379.8 5262.14 16400.8 5308.69 16407.7 5372.07L16427.6 5369.93ZM16186.6 5164C16101.2 5164 16036.5 5188.36 15993.4 5238.21C15950.6 5287.78 15930.6 5360.83 15930.6 5455H15950.6C15950.6 5363.17 15970.2 5295.72 16008.6 5251.29C16046.7 5207.14 16105 5184 16186.6 5184V5164ZM15930.6 5455C15930.6 5549.12 15950.1 5622.16 15992.4 5671.74C16035 5721.64 16099.2 5746 16184.6 5746V5726C16103 5726 16045.2 5702.86 16007.6 5658.76C15969.7 5614.34 15950.6 5546.88 15950.6 5455H15930.6ZM16184.6 5746C16261.8 5746 16321.3 5726.05 16362.6 5687.43C16403.9 5648.8 16425.5 5592.8 16429.6 5523.59L16409.6 5522.41C16405.7 5588.2 16385.4 5638.7 16348.9 5672.82C16312.4 5706.95 16258.4 5726 16184.6 5726V5746ZM16419.6 5533H16504.6V5513H16419.6V5533ZM16494.6 5522.41C16489.7 5605.24 16464.1 5673.02 16414.7 5720.14C16365.4 5767.23 16290.9 5795 16185.6 5795V5815C16294.3 5815 16374.4 5786.27 16428.5 5734.61C16482.6 5682.98 16509.5 5609.76 16514.6 5523.59L16494.6 5522.41ZM16799.1 5788H16789.1V5798H16799.1V5788ZM16799.1 5123V5113H16789.1V5123H16799.1ZM16882.1 5123H16892.1V5113H16882.1V5123ZM16882.1 5501H16872.1V5526.85L16889.5 5507.73L16882.1 5501ZM17226.1 5123V5113H17221.7L17218.7 5116.27L17226.1 5123ZM17335.1 5123L17342.4 5129.82L17358.1 5113H17335.1V5123ZM17072.1 5405L17064.8 5398.18L17059.2 5404.25L17064.1 5410.93L17072.1 5405ZM17351.1 5784H17361.1V5780.72L17359.2 5778.07L17351.1 5784ZM17351.1 5788V5798H17361.1V5788H17351.1ZM17250.1 5788L17242 5793.85L17245 5798H17250.1V5788ZM17016.1 5464L17024.2 5458.15L17017.1 5448.27L17008.8 5457.19L17016.1 5464ZM16882.1 5608L16874.8 5601.19L16872.1 5604.07V5608H16882.1ZM16882.1 5788V5798H16892.1V5788H16882.1ZM16809.1 5788V5123H16789.1V5788H16809.1ZM16799.1 5133H16882.1V5113H16799.1V5133ZM16872.1 5123V5501H16892.1V5123H16872.1ZM16889.5 5507.73L17233.5 5129.73L17218.7 5116.27L16874.7 5494.27L16889.5 5507.73ZM17226.1 5133H17335.1V5113H17226.1V5133ZM17327.8 5116.18L17064.8 5398.18L17079.4 5411.82L17342.4 5129.82L17327.8 5116.18ZM17064.1 5410.93L17343.1 5789.93L17359.2 5778.07L17080.2 5399.07L17064.1 5410.93ZM17341.1 5784V5788H17361.1V5784H17341.1ZM17351.1 5778H17250.1V5798H17351.1V5778ZM17258.2 5782.15L17024.2 5458.15L17008 5469.85L17242 5793.85L17258.2 5782.15ZM17008.8 5457.19L16874.8 5601.19L16889.5 5614.81L17023.5 5470.81L17008.8 5457.19ZM16872.1 5608V5788H16892.1V5608H16872.1ZM16882.1 5778H16799.1V5798H16882.1V5778ZM18207.8 5371V5381H18218.9L18217.8 5369.98L18207.8 5371ZM18122.8 5371L18112.9 5372.07L18113.8 5381H18122.8V5371ZM18124.8 5523V5513H18115.4L18114.8 5522.41L18124.8 5523ZM18209.8 5523L18219.8 5523.59L18220.4 5513H18209.8V5523ZM17890.8 5795C17778.6 5795 17698.6 5758.83 17646.5 5699.17C17594.2 5639.3 17568.8 5554.43 17568.8 5455H17548.8C17548.8 5557.57 17575 5647.7 17631.4 5712.33C17688 5777.17 17774 5815 17890.8 5815V5795ZM17568.8 5455C17568.8 5356.63 17594.6 5271.75 17647.5 5211.6C17700.1 5151.65 17780.6 5115 17892.8 5115V5095C17776 5095 17689.5 5133.35 17632.4 5198.4C17575.5 5263.25 17548.8 5353.37 17548.8 5455H17568.8ZM17892.8 5115C17993.7 5115 18065.5 5139.85 18114.1 5183.56C18162.7 5227.27 18189.5 5291.11 18197.9 5372.02L18217.8 5369.98C18209.1 5285.89 18180.9 5216.73 18127.5 5168.69C18074.1 5120.65 17996.9 5095 17892.8 5095V5115ZM18207.8 5361H18122.8V5381H18207.8V5361ZM18132.8 5369.93C18125.6 5303.31 18103.1 5251.36 18062.6 5216.2C18022.2 5181.09 17965.3 5164 17891.8 5164V5184C17962.4 5184 18013.9 5200.41 18049.5 5231.3C18085 5262.14 18106 5308.69 18112.9 5372.07L18132.8 5369.93ZM17891.8 5164C17806.4 5164 17741.7 5188.36 17698.6 5238.21C17655.8 5287.78 17635.8 5360.83 17635.8 5455H17655.8C17655.8 5363.17 17675.3 5295.72 17713.8 5251.29C17751.9 5207.14 17810.2 5184 17891.8 5184V5164ZM17635.8 5455C17635.8 5549.12 17655.3 5622.16 17697.6 5671.74C17740.2 5721.64 17804.4 5746 17889.8 5746V5726C17808.2 5726 17750.4 5702.86 17712.8 5658.76C17674.9 5614.34 17655.8 5546.88 17655.8 5455H17635.8ZM17889.8 5746C17967 5746 18026.5 5726.05 18067.8 5687.43C18109.1 5648.8 18130.7 5592.8 18134.8 5523.59L18114.8 5522.41C18110.9 5588.2 18090.6 5638.7 18054.1 5672.82C18017.6 5706.95 17963.6 5726 17889.8 5726V5746ZM18124.8 5533H18209.8V5513H18124.8V5533ZM18199.8 5522.41C18194.9 5605.24 18169.3 5673.02 18119.9 5720.14C18070.6 5767.23 17996.1 5795 17890.8 5795V5815C17999.5 5815 18079.6 5786.27 18133.7 5734.61C18187.8 5682.98 18214.7 5609.76 18219.8 5523.59L18199.8 5522.41ZM18504.3 5788H18494.3V5798H18504.3V5788ZM18504.3 5123V5113H18494.3V5123H18504.3ZM18587.3 5123H18597.3V5113H18587.3V5123ZM18587.3 5411H18577.3V5421H18587.3V5411ZM18974.3 5411V5421H18984.3V5411H18974.3ZM18974.3 5123V5113H18964.3V5123H18974.3ZM19056.3 5123H19066.3V5113H19056.3V5123ZM19056.3 5788V5798H19066.3V5788H19056.3ZM18974.3 5788H18964.3V5798H18974.3V5788ZM18974.3 5478H18984.3V5468H18974.3V5478ZM18587.3 5478V5468H18577.3V5478H18587.3ZM18587.3 5788V5798H18597.3V5788H18587.3ZM18514.3 5788V5123H18494.3V5788H18514.3ZM18504.3 5133H18587.3V5113H18504.3V5133ZM18577.3 5123V5411H18597.3V5123H18577.3ZM18587.3 5421H18974.3V5401H18587.3V5421ZM18984.3 5411V5123H18964.3V5411H18984.3ZM18974.3 5133H19056.3V5113H18974.3V5133ZM19046.3 5123V5788H19066.3V5123H19046.3ZM19056.3 5778H18974.3V5798H19056.3V5778ZM18984.3 5788V5478H18964.3V5788H18984.3ZM18974.3 5468H18587.3V5488H18974.3V5468ZM18577.3 5478V5788H18597.3V5478H18577.3ZM18587.3 5778H18504.3V5798H18587.3V5778ZM19956.8 5788V5798H19971.3L19966.1 5784.46L19956.8 5788ZM19871.8 5788L19862.4 5791.57L19864.9 5798H19871.8V5788ZM19806.8 5618L19816.1 5614.43L19813.7 5608H19806.8V5618ZM19477.8 5618V5608H19470.9L19468.4 5614.43L19477.8 5618ZM19412.8 5788V5798H19419.7L19422.1 5791.57L19412.8 5788ZM19328.8 5788L19319.4 5784.44L19314.3 5798H19328.8V5788ZM19581.8 5123V5113H19574.9L19572.4 5119.44L19581.8 5123ZM19704.8 5123L19714.1 5119.46L19711.7 5113H19704.8V5123ZM19502.8 5551L19493.4 5547.44L19488.3 5561H19502.8V5551ZM19781.8 5551V5561H19796.2L19791.1 5547.47L19781.8 5551ZM19642.8 5183L19652.1 5179.47L19642.8 5154.79L19633.4 5179.44L19642.8 5183ZM19956.8 5778H19871.8V5798H19956.8V5778ZM19881.1 5784.43L19816.1 5614.43L19797.4 5621.57L19862.4 5791.57L19881.1 5784.43ZM19806.8 5608H19477.8V5628H19806.8V5608ZM19468.4 5614.43L19403.4 5784.43L19422.1 5791.57L19487.1 5621.57L19468.4 5614.43ZM19412.8 5778H19328.8V5798H19412.8V5778ZM19338.1 5791.56L19591.1 5126.56L19572.4 5119.44L19319.4 5784.44L19338.1 5791.56ZM19581.8 5133H19704.8V5113H19581.8V5133ZM19695.4 5126.54L19947.4 5791.54L19966.1 5784.46L19714.1 5119.46L19695.4 5126.54ZM19502.8 5561H19781.8V5541H19502.8V5561ZM19791.1 5547.47L19652.1 5179.47L19633.4 5186.53L19772.4 5554.53L19791.1 5547.47ZM19633.4 5179.44L19493.4 5547.44L19512.1 5554.56L19652.1 5186.56L19633.4 5179.44ZM20213.1 5788H20203.1V5798H20213.1V5788ZM20213.1 5721V5711H20203.1V5721H20213.1ZM20354.1 5721V5731H20364.1V5721H20354.1ZM20354.1 5190H20364.1V5180H20354.1V5190ZM20213.1 5190H20203.1V5200H20213.1V5190ZM20213.1 5123V5113H20203.1V5123H20213.1ZM20578.1 5123H20588.1V5113H20578.1V5123ZM20578.1 5190V5200H20588.1V5190H20578.1ZM20437.1 5190V5180H20427.1V5190H20437.1ZM20437.1 5721H20427.1V5731H20437.1V5721ZM20578.1 5721H20588.1V5711H20578.1V5721ZM20578.1 5788V5798H20588.1V5788H20578.1ZM20223.1 5788V5721H20203.1V5788H20223.1ZM20213.1 5731H20354.1V5711H20213.1V5731ZM20364.1 5721V5190H20344.1V5721H20364.1ZM20354.1 5180H20213.1V5200H20354.1V5180ZM20223.1 5190V5123H20203.1V5190H20223.1ZM20213.1 5133H20578.1V5113H20213.1V5133ZM20568.1 5123V5190H20588.1V5123H20568.1ZM20578.1 5180H20437.1V5200H20578.1V5180ZM20427.1 5190V5721H20447.1V5190H20427.1ZM20437.1 5731H20578.1V5711H20437.1V5731ZM20568.1 5721V5788H20588.1V5721H20568.1ZM20578.1 5778H20213.1V5798H20578.1V5778ZM21372.8 5731L21363.8 5735.35L21382.8 5731H21372.8ZM21372.8 5123V5113H21362.8V5123H21372.8ZM21454.8 5123H21464.8V5113H21454.8V5123ZM21454.8 5788V5798H21464.8V5788H21454.8ZM21315.8 5788L21307.1 5793.01L21310 5798H21315.8V5788ZM21013.8 5266L21005 5270.69L21005 5270.85L21005.1 5271.01L21013.8 5266ZM20971.8 5179L20981.1 5175.41L20961.8 5179H20971.8ZM20971.8 5788V5798H20981.8V5788H20971.8ZM20888.8 5788H20878.8V5798H20888.8V5788ZM20888.8 5123V5113H20878.8V5123H20888.8ZM21028.8 5123L21037.4 5118L21034.6 5113H21028.8V5123ZM21330.8 5646L21339.5 5641.08L21339.5 5641.04L21339.4 5641L21330.8 5646ZM21382.8 5731V5123H21362.8V5731H21382.8ZM21372.8 5133H21454.8V5113H21372.8V5133ZM21444.8 5123V5788H21464.8V5123H21444.8ZM21454.8 5778H21315.8V5798H21454.8V5778ZM21324.4 5782.99L21022.4 5260.99L21005.1 5271.01L21307.1 5793.01L21324.4 5782.99ZM21022.6 5261.31C21005.6 5229.24 20990.9 5200.76 20981.1 5175.41L20962.4 5182.59C20972.7 5209.24 20988 5238.76 21005 5270.69L21022.6 5261.31ZM20961.8 5179V5788H20981.8V5179H20961.8ZM20971.8 5778H20888.8V5798H20971.8V5778ZM20898.8 5788V5123H20878.8V5788H20898.8ZM20888.8 5133H21028.8V5113H20888.8V5133ZM21020.1 5128L21322.1 5651L21339.4 5641L21037.4 5118L21020.1 5128ZM21322.1 5650.92C21334.9 5673.54 21349.6 5705.96 21363.8 5735.35L21381.8 5726.65C21368 5698.04 21352.7 5664.46 21339.5 5641.08L21322.1 5650.92ZM9561 6798V6808H9575.48L9570.35 6794.46L9561 6798ZM9476 6798L9466.66 6801.57L9469.12 6808H9476V6798ZM9411 6628L9420.34 6624.43L9417.88 6618H9411V6628ZM9082 6628V6618H9075.12L9072.66 6624.43L9082 6628ZM9017 6798V6808H9023.88L9026.34 6801.57L9017 6798ZM8933 6798L8923.65 6794.44L8918.5 6808H8933V6798ZM9186 6133V6123H9179.11L9176.65 6129.44L9186 6133ZM9309 6133L9318.35 6129.46L9315.9 6123H9309V6133ZM9107 6561L9097.65 6557.44L9092.5 6571H9107V6561ZM9386 6561V6571H9400.47L9395.35 6557.47L9386 6561ZM9247 6193L9256.35 6189.47L9247.03 6164.79L9237.65 6189.44L9247 6193ZM9561 6788H9476V6808H9561V6788ZM9485.34 6794.43L9420.34 6624.43L9401.66 6631.57L9466.66 6801.57L9485.34 6794.43ZM9411 6618H9082V6638H9411V6618ZM9072.66 6624.43L9007.66 6794.43L9026.34 6801.57L9091.34 6631.57L9072.66 6624.43ZM9017 6788H8933V6808H9017V6788ZM8942.35 6801.56L9195.35 6136.56L9176.65 6129.44L8923.65 6794.44L8942.35 6801.56ZM9186 6143H9309V6123H9186V6143ZM9299.65 6136.54L9551.65 6801.54L9570.35 6794.46L9318.35 6129.46L9299.65 6136.54ZM9107 6571H9386V6551H9107V6571ZM9395.35 6557.47L9256.35 6189.47L9237.65 6196.53L9376.65 6564.53L9395.35 6557.47ZM9237.65 6189.44L9097.65 6557.44L9116.35 6564.56L9256.35 6196.56L9237.65 6189.44ZM10396.3 6741L10387.3 6745.35L10406.3 6741H10396.3ZM10396.3 6133V6123H10386.3V6133H10396.3ZM10478.3 6133H10488.3V6123H10478.3V6133ZM10478.3 6798V6808H10488.3V6798H10478.3ZM10339.3 6798L10330.6 6803.01L10333.5 6808H10339.3V6798ZM10037.3 6276L10028.5 6280.69L10028.6 6280.85L10028.6 6281.01L10037.3 6276ZM9995.3 6189L10004.6 6185.41L9985.3 6189H9995.3ZM9995.3 6798V6808H10005.3V6798H9995.3ZM9912.3 6798H9902.3V6808H9912.3V6798ZM9912.3 6133V6123H9902.3V6133H9912.3ZM10052.3 6133L10061 6128L10058.1 6123H10052.3V6133ZM10354.3 6656L10363 6651.08L10363 6651.04L10363 6651L10354.3 6656ZM10406.3 6741V6133H10386.3V6741H10406.3ZM10396.3 6143H10478.3V6123H10396.3V6143ZM10468.3 6133V6798H10488.3V6133H10468.3ZM10478.3 6788H10339.3V6808H10478.3V6788ZM10348 6792.99L10046 6270.99L10028.6 6281.01L10330.6 6803.01L10348 6792.99ZM10046.1 6271.31C10029.1 6239.24 10014.4 6210.76 10004.6 6185.41L9985.96 6192.59C9996.21 6219.24 10011.5 6248.76 10028.5 6280.69L10046.1 6271.31ZM9985.3 6189V6798H10005.3V6189H9985.3ZM9995.3 6788H9912.3V6808H9995.3V6788ZM9922.3 6798V6133H9902.3V6798H9922.3ZM9912.3 6143H10052.3V6123H9912.3V6143ZM10043.6 6138L10345.6 6661L10363 6651L10061 6128L10043.6 6138ZM10345.6 6660.92C10358.4 6683.55 10373.1 6715.96 10387.3 6745.35L10405.3 6736.65C10391.5 6708.04 10376.2 6674.45 10363 6651.08L10345.6 6660.92ZM10885.4 6798H10875.4V6808H10885.4V6798ZM10885.4 6133V6123H10875.4V6133H10885.4ZM10968.4 6731H10958.4V6741H10968.4V6731ZM10968.4 6200V6190H10958.4V6200H10968.4ZM10895.4 6798V6133H10875.4V6798H10895.4ZM10885.4 6143H11161.4V6123H10885.4V6143ZM11161.4 6143C11267.9 6143 11342.4 6179.53 11390.5 6237.04C11438.8 6294.83 11461.4 6375.05 11461.4 6464H11481.4C11481.4 6371.95 11458 6286.67 11405.8 6224.21C11353.4 6161.47 11272.9 6123 11161.4 6123V6143ZM11461.4 6464C11461.4 6553.98 11438.8 6634.95 11390.5 6693.24C11342.4 6751.24 11267.9 6788 11161.4 6788V6808C11272.9 6808 11353.4 6769.26 11405.9 6706.01C11458.1 6643.05 11481.4 6557.02 11481.4 6464H11461.4ZM11161.4 6788H10885.4V6808H11161.4V6788ZM10968.4 6741H11146.4V6721H10968.4V6741ZM11146.4 6741C11236.8 6741 11299.6 6715.93 11339.5 6667.21C11379.1 6618.93 11394.4 6549.36 11394.4 6464H11374.4C11374.4 6547.64 11359.3 6611.57 11324.1 6654.54C11289.2 6697.07 11233.1 6721 11146.4 6721V6741ZM11394.4 6464C11394.4 6378.68 11379.3 6309.8 11339.9 6262.24C11300 6214.26 11237.1 6190 11146.4 6190V6210C11233.7 6210 11289.8 6233.24 11324.5 6275.01C11359.5 6317.2 11374.4 6380.32 11374.4 6464H11394.4ZM11146.4 6190H10968.4V6210H11146.4V6190ZM10958.4 6200V6731H10978.4V6200H10958.4ZM12967.3 6381V6391H12978.4L12977.3 6379.98L12967.3 6381ZM12882.3 6381L12872.4 6382.07L12873.4 6391H12882.3V6381ZM12884.3 6533V6523H12874.9L12874.4 6532.41L12884.3 6533ZM12969.3 6533L12979.3 6533.59L12980 6523H12969.3V6533ZM12650.3 6805C12538.1 6805 12458.1 6768.83 12406 6709.17C12353.7 6649.3 12328.3 6564.43 12328.3 6465H12308.3C12308.3 6567.57 12334.5 6657.7 12390.9 6722.33C12447.6 6787.17 12533.6 6825 12650.3 6825V6805ZM12328.3 6465C12328.3 6366.63 12354.2 6281.75 12407 6221.6C12459.6 6161.65 12540.2 6125 12652.3 6125V6105C12535.5 6105 12449.1 6143.35 12392 6208.4C12335 6273.25 12308.3 6363.37 12308.3 6465H12328.3ZM12652.3 6125C12753.3 6125 12825.1 6149.85 12873.7 6193.56C12922.2 6237.27 12949.1 6301.11 12957.4 6382.02L12977.3 6379.98C12968.6 6295.89 12940.4 6226.73 12887 6178.69C12833.6 6130.65 12756.4 6105 12652.3 6105V6125ZM12967.3 6371H12882.3V6391H12967.3V6371ZM12892.3 6379.93C12885.1 6313.31 12862.6 6261.36 12822.2 6226.2C12781.7 6191.09 12724.8 6174 12651.3 6174V6194C12721.9 6194 12773.5 6210.41 12809 6241.3C12844.5 6272.14 12865.6 6318.69 12872.4 6382.07L12892.3 6379.93ZM12651.3 6174C12565.9 6174 12501.2 6198.36 12458.2 6248.21C12415.3 6297.78 12395.3 6370.83 12395.3 6465H12415.3C12415.3 6373.17 12434.9 6305.72 12473.3 6261.29C12511.4 6217.14 12569.7 6194 12651.3 6194V6174ZM12395.3 6465C12395.3 6559.12 12414.8 6632.16 12457.1 6681.74C12499.7 6731.64 12563.9 6756 12649.3 6756V6736C12567.8 6736 12510 6712.86 12472.3 6668.76C12434.4 6624.34 12415.3 6556.88 12415.3 6465H12395.3ZM12649.3 6756C12726.5 6756 12786 6736.05 12827.3 6697.43C12868.6 6658.8 12890.2 6602.8 12894.3 6533.59L12874.4 6532.41C12870.5 6598.2 12850.1 6648.7 12813.6 6682.82C12777.2 6716.95 12723.2 6736 12649.3 6736V6756ZM12884.3 6543H12969.3V6523H12884.3V6543ZM12959.4 6532.41C12954.5 6615.24 12928.8 6683.02 12879.4 6730.14C12830.1 6777.23 12755.6 6805 12650.3 6805V6825C12759.1 6825 12839.1 6796.27 12893.2 6744.61C12947.4 6692.98 12974.2 6619.76 12979.3 6533.59L12959.4 6532.41ZM13849.9 6798V6808H13862.5L13859.6 6795.67L13849.9 6798ZM13768.9 6798L13759.3 6801.03L13761.5 6808H13768.9V6798ZM13426.9 6500V6490H13416.9V6500H13426.9ZM13426.9 6798V6808H13436.9V6798H13426.9ZM13343.9 6798H13333.9V6808H13343.9V6798ZM13343.9 6133V6123H13333.9V6133H13343.9ZM13728.9 6476L13726.6 6466.25L13726.1 6485.62L13728.9 6476ZM13426.9 6438H13416.9V6448H13426.9V6438ZM13426.9 6200V6190H13416.9V6200H13426.9ZM13826.9 6692C13826.9 6742.1 13834 6774.95 13840.1 6800.33L13859.6 6795.67C13853.7 6771.05 13846.9 6739.9 13846.9 6692H13826.9ZM13849.9 6788H13768.9V6808H13849.9V6788ZM13778.4 6794.97C13771.8 6774.29 13766.9 6742.41 13766.9 6695H13746.9C13746.9 6743.59 13751.9 6777.71 13759.3 6801.03L13778.4 6794.97ZM13766.9 6695V6634H13746.9V6695H13766.9ZM13766.9 6634C13766.9 6584.77 13753.6 6548.07 13726.5 6523.91C13699.7 6499.96 13661 6490 13613.9 6490V6510C13658.7 6510 13691.6 6519.54 13713.2 6538.84C13734.6 6557.93 13746.9 6588.23 13746.9 6634H13766.9ZM13613.9 6490H13426.9V6510H13613.9V6490ZM13416.9 6500V6798H13436.9V6500H13416.9ZM13426.9 6788H13343.9V6808H13426.9V6788ZM13353.9 6798V6133H13333.9V6798H13353.9ZM13343.9 6143H13653.9V6123H13343.9V6143ZM13653.9 6143C13720.8 6143 13769.1 6159.62 13800.6 6187.82C13831.9 6215.88 13847.9 6256.65 13847.9 6308H13867.9C13867.9 6252.35 13850.4 6205.62 13813.9 6172.93C13777.6 6140.38 13723.9 6123 13653.9 6123V6143ZM13847.9 6308C13847.9 6392.3 13796.1 6450.29 13726.6 6466.25L13731.1 6485.75C13809.6 6467.71 13867.9 6401.7 13867.9 6308H13847.9ZM13726.1 6485.62C13757 6494.44 13781.7 6505.77 13798.9 6525.56C13816 6545.16 13826.9 6574.51 13826.9 6622H13846.9C13846.9 6571.49 13835.2 6536.84 13814 6512.44C13793 6488.23 13763.7 6475.56 13731.6 6466.38L13726.1 6485.62ZM13826.9 6622V6692H13846.9V6622H13826.9ZM13426.9 6448H13643.9V6428H13426.9V6448ZM13643.9 6448C13691.9 6448 13726.8 6435.84 13749.5 6411.88C13772.1 6388.01 13780.9 6354.28 13780.9 6315H13760.9C13760.9 6351.72 13752.6 6379.49 13735 6398.12C13717.4 6416.66 13688.8 6428 13643.9 6428V6448ZM13780.9 6315C13780.9 6274.92 13770.7 6243 13747.3 6221.29C13724 6199.73 13689.6 6190 13644.9 6190V6210C13687.1 6210 13715.7 6219.27 13733.7 6235.96C13751.5 6252.5 13760.9 6278.08 13760.9 6315H13780.9ZM13644.9 6190H13426.9V6210H13644.9V6190ZM13416.9 6200V6438H13436.9V6200H13416.9ZM14151 6133V6123H14133.7L14142.4 6138.01L14151 6133ZM14246 6133L14254.8 6128.19L14252 6123H14246V6133ZM14397 6408L14405.9 6403.41L14405.9 6403.3L14405.8 6403.19L14397 6408ZM14443 6493L14434.4 6497.96L14443.3 6513.65L14451.9 6497.72L14443 6493ZM14489 6408L14480.3 6403.16L14480.2 6403.28L14480.2 6403.41L14489 6408ZM14641 6133V6123H14635.1L14632.3 6128.16L14641 6133ZM14734 6133L14742.7 6138.01L14751.4 6123H14734V6133ZM14484 6565L14475.4 6559.99L14474 6562.32V6565H14484ZM14484 6798V6808H14494V6798H14484ZM14401 6798H14391V6808H14401V6798ZM14401 6565H14411V6562.32L14409.7 6559.99L14401 6565ZM14151 6143H14246V6123H14151V6143ZM14237.3 6137.81L14388.3 6412.81L14405.8 6403.19L14254.8 6128.19L14237.3 6137.81ZM14388.2 6412.59C14403.2 6441.68 14418.3 6469.81 14434.4 6497.96L14451.7 6488.04C14435.8 6460.19 14420.9 6432.32 14405.9 6403.41L14388.2 6412.59ZM14451.9 6497.72C14466.6 6470.12 14482.9 6441.6 14497.9 6412.59L14480.2 6403.41C14465.2 6432.4 14449.4 6459.88 14434.2 6488.28L14451.9 6497.72ZM14497.8 6412.84L14649.8 6137.84L14632.3 6128.16L14480.3 6403.16L14497.8 6412.84ZM14641 6143H14734V6123H14641V6143ZM14725.4 6127.99L14475.4 6559.99L14492.7 6570.01L14742.7 6138.01L14725.4 6127.99ZM14474 6565V6798H14494V6565H14474ZM14484 6788H14401V6808H14484V6788ZM14411 6798V6565H14391V6798H14411ZM14409.7 6559.99L14159.7 6127.99L14142.4 6138.01L14392.4 6570.01L14409.7 6559.99ZM15143.6 6522V6512H15133.6V6522H15143.6ZM15143.6 6798V6808H15153.6V6798H15143.6ZM15059.6 6798H15049.6V6808H15059.6V6798ZM15059.6 6133V6123H15049.6V6133H15059.6ZM15143.6 6455H15133.6V6465H15143.6V6455ZM15143.6 6200V6190H15133.6V6200H15143.6ZM15364.6 6143C15434 6143 15481.4 6164.05 15511.4 6196.65C15541.6 6229.41 15555.6 6275.2 15555.6 6327H15575.6C15575.6 6271.8 15560.7 6220.59 15526.1 6183.1C15491.4 6145.45 15438.2 6123 15364.6 6123V6143ZM15555.6 6327C15555.6 6378.28 15541.6 6424.32 15510.9 6457.46C15480.4 6490.45 15432.1 6512 15360.6 6512V6532C15436.2 6532 15490.4 6509.05 15525.6 6471.04C15560.7 6433.18 15575.6 6381.72 15575.6 6327H15555.6ZM15360.6 6512H15143.6V6532H15360.6V6512ZM15133.6 6522V6798H15153.6V6522H15133.6ZM15143.6 6788H15059.6V6808H15143.6V6788ZM15069.6 6798V6133H15049.6V6798H15069.6ZM15059.6 6143H15364.6V6123H15059.6V6143ZM15143.6 6465H15343.6V6445H15143.6V6465ZM15343.6 6465C15394.8 6465 15431.6 6451.54 15455.5 6426.39C15479.3 6401.33 15488.6 6366.41 15488.6 6327H15468.6C15468.6 6363.59 15460 6392.67 15441 6412.61C15422.2 6432.46 15391.5 6445 15343.6 6445V6465ZM15488.6 6327C15488.6 6286.18 15479.4 6251.43 15455.9 6226.95C15432.3 6202.39 15396.2 6190 15346.6 6190V6210C15393.1 6210 15423 6221.61 15441.4 6240.8C15459.9 6260.07 15468.6 6288.82 15468.6 6327H15488.6ZM15346.6 6190H15143.6V6210H15346.6V6190ZM15133.6 6200V6455H15153.6V6200H15133.6ZM16111.3 6799H16101.3V6809H16111.3V6799ZM16111.3 6200H16121.3V6190H16111.3V6200ZM15871.3 6200H15861.3V6210H15871.3V6200ZM15871.3 6133V6123H15861.3V6133H15871.3ZM16431.3 6133H16441.3V6123H16431.3V6133ZM16431.3 6200V6210H16441.3V6200H16431.3ZM16193.3 6200V6190H16183.3V6200H16193.3ZM16193.3 6799V6809H16203.3V6799H16193.3ZM16121.3 6799V6200H16101.3V6799H16121.3ZM16111.3 6190H15871.3V6210H16111.3V6190ZM15881.3 6200V6133H15861.3V6200H15881.3ZM15871.3 6143H16431.3V6123H15871.3V6143ZM16421.3 6133V6200H16441.3V6133H16421.3ZM16431.3 6190H16193.3V6210H16431.3V6190ZM16183.3 6200V6799H16203.3V6200H16183.3ZM16193.3 6789H16111.3V6809H16193.3V6789ZM17048.2 6805C16935 6805 16855 6768.58 16803.1 6708.82C16751.1 6648.83 16726.2 6563.97 16726.2 6465H16706.2C16706.2 6567.03 16731.8 6657.17 16788 6721.93C16844.4 6786.92 16930.4 6825 17048.2 6825V6805ZM16726.2 6465C16726.2 6367.56 16751.1 6282.67 16803.1 6222.28C16855 6162.13 16935 6125 17048.2 6125V6105C16930.4 6105 16844.4 6143.87 16788 6209.22C16731.8 6274.33 16706.2 6364.44 16706.2 6465H16726.2ZM17048.2 6125C17161.3 6125 17241.1 6162.37 17292.7 6222.63C17344.6 6283.15 17369.2 6368.05 17369.2 6465H17389.2C17389.2 6364.95 17363.8 6274.85 17307.9 6209.62C17251.8 6144.13 17166.1 6105 17048.2 6105V6125ZM17369.2 6465C17369.2 6563.48 17344.6 6648.35 17292.7 6708.47C17241.1 6768.34 17161.4 6805 17048.2 6805V6825C17166 6825 17251.8 6786.66 17307.9 6721.53C17363.8 6656.65 17389.2 6566.52 17389.2 6465H17369.2ZM16793.2 6465C16793.2 6559.55 16812.1 6632.63 16854.3 6682.12C16896.9 6731.94 16961.4 6756 17048.2 6756V6736C16965 6736 16907 6713.06 16869.6 6669.13C16831.8 6624.87 16813.2 6557.45 16813.2 6465H16793.2ZM17048.2 6756C17135 6756 17199.3 6731.93 17241.6 6682.09C17283.5 6632.6 17302.2 6559.52 17302.2 6465H17282.2C17282.2 6557.48 17263.8 6624.9 17226.3 6669.16C17189.1 6713.07 17131.4 6736 17048.2 6736V6756ZM17302.2 6465C17302.2 6370.48 17283.5 6297.4 17241.6 6247.91C17199.3 6198.07 17135 6174 17048.2 6174V6194C17131.4 6194 17189.1 6216.93 17226.3 6260.84C17263.8 6305.1 17282.2 6372.52 17282.2 6465H17302.2ZM17048.2 6174C16961.4 6174 16896.9 6198.06 16854.3 6247.88C16812.1 6297.37 16793.2 6370.45 16793.2 6465H16813.2C16813.2 6372.55 16831.8 6305.13 16869.6 6260.87C16907 6216.94 16965 6194 17048.2 6194V6174ZM18874.9 6381V6391H18886L18884.9 6379.98L18874.9 6381ZM18789.9 6381L18780 6382.07L18780.9 6391H18789.9V6381ZM18791.9 6533V6523H18782.5L18781.9 6532.41L18791.9 6533ZM18876.9 6533L18886.9 6533.59L18887.5 6523H18876.9V6533ZM18557.9 6805C18445.7 6805 18365.7 6768.83 18313.6 6709.17C18261.3 6649.3 18235.9 6564.43 18235.9 6465H18215.9C18215.9 6567.57 18242.1 6657.7 18298.5 6722.33C18355.2 6787.17 18441.1 6825 18557.9 6825V6805ZM18235.9 6465C18235.9 6366.63 18261.7 6281.75 18314.6 6221.6C18367.2 6161.65 18447.7 6125 18559.9 6125V6105C18443.1 6105 18356.6 6143.35 18299.5 6208.4C18242.6 6273.25 18215.9 6363.37 18215.9 6465H18235.9ZM18559.9 6125C18660.8 6125 18732.6 6149.85 18781.2 6193.56C18829.8 6237.27 18856.6 6301.11 18865 6382.02L18884.9 6379.98C18876.2 6295.89 18848 6226.73 18794.6 6178.69C18741.2 6130.65 18664 6105 18559.9 6105V6125ZM18874.9 6371H18789.9V6391H18874.9V6371ZM18799.9 6379.93C18792.7 6313.31 18770.2 6261.36 18729.7 6226.2C18689.3 6191.09 18632.4 6174 18558.9 6174V6194C18629.5 6194 18681 6210.41 18716.6 6241.3C18752.1 6272.14 18773.2 6318.69 18780 6382.07L18799.9 6379.93ZM18558.9 6174C18473.5 6174 18408.8 6198.36 18365.7 6248.21C18322.9 6297.78 18302.9 6370.83 18302.9 6465H18322.9C18322.9 6373.17 18342.5 6305.72 18380.9 6261.29C18419 6217.14 18477.3 6194 18558.9 6194V6174ZM18302.9 6465C18302.9 6559.12 18322.4 6632.16 18364.7 6681.74C18407.3 6731.64 18471.5 6756 18556.9 6756V6736C18475.3 6736 18417.6 6712.86 18379.9 6668.76C18342 6624.34 18322.9 6556.88 18322.9 6465H18302.9ZM18556.9 6756C18634.1 6756 18693.6 6736.05 18734.9 6697.43C18776.2 6658.8 18797.8 6602.8 18801.9 6533.59L18781.9 6532.41C18778 6598.2 18757.7 6648.7 18721.2 6682.82C18684.7 6716.95 18630.8 6736 18556.9 6736V6756ZM18791.9 6543H18876.9V6523H18791.9V6543ZM18866.9 6532.41C18862 6615.24 18836.4 6683.02 18787 6730.14C18737.7 6777.23 18663.2 6805 18557.9 6805V6825C18666.6 6825 18746.7 6796.27 18800.8 6744.61C18854.9 6692.98 18881.8 6619.76 18886.9 6533.59L18866.9 6532.41ZM19251.4 6798H19241.4V6808H19251.4V6798ZM19251.4 6133V6123H19241.4V6133H19251.4ZM19334.4 6133H19344.4V6123H19334.4V6133ZM19334.4 6731H19324.4V6741H19334.4V6731ZM19682.4 6731H19692.4V6721H19682.4V6731ZM19682.4 6798V6808H19692.4V6798H19682.4ZM19261.4 6798V6133H19241.4V6798H19261.4ZM19251.4 6143H19334.4V6123H19251.4V6143ZM19324.4 6133V6731H19344.4V6133H19324.4ZM19334.4 6741H19682.4V6721H19334.4V6741ZM19672.4 6731V6798H19692.4V6731H19672.4ZM19682.4 6788H19251.4V6808H19682.4V6788ZM20006.5 6133V6123H19996.5V6133H20006.5ZM20089.5 6133H20099.5V6123H20089.5V6133ZM20463.5 6133V6123H20453.5V6133H20463.5ZM20546.5 6133H20556.5V6123H20546.5V6133ZM20016.5 6560V6133H19996.5V6560H20016.5ZM20006.5 6143H20089.5V6123H20006.5V6143ZM20079.5 6133V6550H20099.5V6133H20079.5ZM20079.5 6550C20079.5 6627.02 20095.4 6679.18 20129.6 6711.74C20163.7 6744.22 20213.8 6755 20276.5 6755V6735C20215.2 6735 20171.8 6724.28 20143.4 6697.26C20115.1 6670.32 20099.5 6624.98 20099.5 6550H20079.5ZM20276.5 6755C20339.2 6755 20389.3 6744.22 20423.4 6711.74C20457.6 6679.18 20473.5 6627.02 20473.5 6550H20453.5C20453.5 6624.98 20437.9 6670.32 20409.6 6697.26C20381.2 6724.28 20337.8 6735 20276.5 6735V6755ZM20473.5 6550V6133H20453.5V6550H20473.5ZM20463.5 6143H20546.5V6123H20463.5V6143ZM20536.5 6133V6560H20556.5V6133H20536.5ZM20536.5 6560C20536.5 6639.34 20515.7 6699.84 20473.9 6740.59C20432 6781.38 20367.5 6804 20276.5 6804V6824C20370.5 6824 20440.9 6800.62 20487.8 6754.91C20534.8 6709.16 20556.5 6642.66 20556.5 6560H20536.5ZM20276.5 6804C20185.5 6804 20120.9 6781.62 20079.1 6740.95C20037.3 6700.34 20016.5 6639.85 20016.5 6560H19996.5C19996.5 6643.15 20018.2 6709.66 20065.1 6755.3C20112 6800.88 20182.5 6824 20276.5 6824V6804ZM20939.9 6798H20929.9V6808H20939.9V6798ZM20939.9 6133V6123H20929.9V6133H20939.9ZM21332.9 6454L21331.1 6444.16L21331.7 6463.92L21332.9 6454ZM21022.9 6731H21012.9V6741H21022.9V6731ZM21022.9 6485V6475H21012.9V6485H21022.9ZM21022.9 6422H21012.9V6432H21022.9V6422ZM21022.9 6200V6190H21012.9V6200H21022.9ZM20949.9 6798V6133H20929.9V6798H20949.9ZM20939.9 6143H21266.9V6123H20939.9V6143ZM21266.9 6143C21336.3 6143 21381.1 6160.82 21408.6 6188.1C21436.1 6215.38 21447.9 6253.69 21447.9 6298H21467.9C21467.9 6250.31 21455.2 6206.12 21422.7 6173.9C21390.2 6141.68 21339.5 6123 21266.9 6123V6143ZM21447.9 6298C21447.9 6343.88 21434.1 6377.4 21413.1 6400.82C21391.9 6424.35 21362.9 6438.47 21331.1 6444.16L21334.6 6463.84C21369.9 6457.53 21403.3 6441.65 21427.9 6414.18C21452.7 6386.6 21467.9 6348.12 21467.9 6298H21447.9ZM21331.7 6463.92C21366.3 6468.19 21397.9 6482.33 21420.9 6507.28C21443.8 6532.14 21458.9 6568.59 21458.9 6619H21478.9C21478.9 6564.41 21462.4 6522.86 21435.6 6493.72C21408.8 6464.67 21372.5 6448.81 21334.1 6444.08L21331.7 6463.92ZM21458.9 6619C21458.9 6671.46 21443 6713.25 21411.8 6742.02C21380.5 6770.91 21332.3 6788 21264.9 6788V6808C21335.5 6808 21389.2 6790.09 21425.4 6756.73C21461.7 6723.25 21478.9 6675.54 21478.9 6619H21458.9ZM21264.9 6788H20939.9V6808H21264.9V6788ZM21022.9 6741H21256.9V6721H21022.9V6741ZM21256.9 6741C21305.1 6741 21339.5 6728 21361.6 6703.89C21383.6 6679.94 21391.9 6646.8 21391.9 6610H21371.9C21371.9 6644.2 21364.1 6671.56 21346.9 6690.36C21329.8 6709 21301.6 6721 21256.9 6721V6741ZM21391.9 6610C21391.9 6568.86 21381.2 6534.5 21355.7 6510.59C21330.4 6486.79 21292.2 6475 21240.9 6475V6495C21289.5 6495 21321.9 6506.21 21342 6525.16C21362.1 6544 21371.9 6572.14 21371.9 6610H21391.9ZM21240.9 6475H21022.9V6495H21240.9V6475ZM21012.9 6485V6731H21032.9V6485H21012.9ZM21022.9 6432H21238.9V6412H21022.9V6432ZM21238.9 6432C21287 6432 21322.9 6422.06 21346.8 6400.85C21370.9 6379.41 21380.9 6348.16 21380.9 6310H21360.9C21360.9 6344.84 21351.8 6369.59 21333.5 6385.9C21314.9 6402.44 21284.8 6412 21238.9 6412V6432ZM21380.9 6310C21380.9 6271.65 21373.8 6240.7 21352.2 6219.71C21330.8 6198.82 21297.2 6190 21249.9 6190V6210C21295.6 6210 21322.5 6218.68 21338.3 6234.04C21354 6249.3 21360.9 6273.35 21360.9 6310H21380.9ZM21249.9 6190H21022.9V6210H21249.9V6190ZM21012.9 6200V6422H21032.9V6200H21012.9Z" fill="white" mask="url(#path-12-outside-1_112_8)"/>
<path d="M9014.6 4506V1912.5H10527.8C11081.6 1912.5 11311.7 2201.1 11311.7 2552.1C11311.7 2934.3 11081.6 3102 10769.6 3168.3C11097.2 3226.8 11350.7 3375 11350.7 3800.1C11350.7 4244.7 11054.3 4506 10500.5 4506H9014.6ZM9701 3991.2H10325C10559 3991.2 10633.1 3870.3 10633.1 3702.6C10633.1 3534.9 10551.2 3410.1 10305.5 3410.1H9701V3991.2ZM9701 2961.6H10305.5C10527.8 2961.6 10594.1 2844.6 10594.1 2692.5C10594.1 2524.8 10512.2 2427.3 10309.4 2427.3H9701V2961.6ZM12230.4 4506V1912.5H13743.6C14297.4 1912.5 14527.5 2201.1 14527.5 2552.1C14527.5 2934.3 14297.4 3102 13985.4 3168.3C14313 3226.8 14566.5 3375 14566.5 3800.1C14566.5 4244.7 14270.1 4506 13716.3 4506H12230.4ZM12916.8 3991.2H13540.8C13774.8 3991.2 13848.9 3870.3 13848.9 3702.6C13848.9 3534.9 13767 3410.1 13521.3 3410.1H12916.8V3991.2ZM12916.8 2961.6H13521.3C13743.6 2961.6 13809.9 2844.6 13809.9 2692.5C13809.9 2524.8 13728 2427.3 13525.2 2427.3H12916.8V2961.6ZM16691.1 4568.4C15688.8 4568.4 15314.4 3924.9 15314.4 3211.2C15314.4 2517 15692.7 1846.2 16695 1846.2C17623.2 1846.2 17989.8 2216.7 18044.4 2961.6H17338.5C17307.3 2610.6 17159.1 2407.8 16706.7 2407.8C16234.8 2407.8 16032 2676.9 16032 3211.2C16032 3737.7 16219.2 4010.7 16687.2 4010.7C17151.3 4010.7 17319 3815.7 17346.3 3437.4H18060C17997.6 4233 17642.7 4568.4 16691.1 4568.4ZM20181.1 4568.4C19178.8 4568.4 18804.4 3924.9 18804.4 3211.2C18804.4 2517 19182.7 1846.2 20185 1846.2C21113.2 1846.2 21479.8 2216.7 21534.4 2961.6H20828.5C20797.3 2610.6 20649.1 2407.8 20196.7 2407.8C19724.8 2407.8 19522 2676.9 19522 3211.2C19522 3737.7 19709.2 4010.7 20177.2 4010.7C20641.3 4010.7 20809 3815.7 20836.3 3437.4H21550C21487.6 4233 21132.7 4568.4 20181.1 4568.4Z" fill="white"/>
</svg>
